<svg version="1.0" xmlns="http://www.w3.org/2000/svg" viewBox="33.99 21.28 444.01 469.22"><path d="M219 21.9c-7.3 2.3-11.9 6.3-14.5 12.3-1.3 3.2-1.5 12.1-1.5 66.4 0 54-.2 62.5-1.4 62.1-.8-.3-24.9-14.1-53.6-30.7-33.5-19.3-53.8-30.4-56.8-31.1-5.8-1.4-11.3-.1-16.8 4-3.1 2.3-7.3 8.8-21.1 32.7-9.4 16.5-17.6 31.2-18.2 32.7-2.8 7.2-.1 16.8 6 22.2 1.9 1.7 26.7 16.4 55.2 32.8 28.4 16.5 51.7 30.3 51.7 30.7 0 .5-23.3 14.2-51.7 30.7-28.5 16.4-53.3 31.1-55.2 32.8-6.1 5.4-8.8 15-6 22.2.6 1.5 8.8 16.2 18.2 32.7 13.8 23.9 18 30.4 21.1 32.7 5.5 4.1 11 5.4 16.8 4 3-.7 23.3-11.8 56.8-31.1 28.7-16.6 52.8-30.4 53.6-30.7 1.2-.4 1.4 8.1 1.4 62.1 0 54.3.2 63.2 1.5 66.4 2 4.7 5 7.8 10 10.5 3.9 2.1 5 2.2 41.5 2.2h37.5l4.5-2.5c2.4-1.4 5.8-4.5 7.5-6.8l3-4.4.3-64c.2-57.1.4-63.9 1.8-63.4.8.3 24.9 14.1 53.6 30.6 33 19.1 53.7 30.5 56.7 31.2 5.7 1.3 11.2 0 16.7-4.1 3.1-2.3 7.3-8.8 21.1-32.7 9.4-16.5 17.6-31.2 18.2-32.7 2.8-7.2.1-16.8-6-22.2-1.9-1.7-26.8-16.5-55.2-32.9S364 256.4 364 256s23.3-14.2 51.7-30.6 53.3-31.2 55.2-32.9c6.1-5.4 8.8-15 6-22.2-.6-1.5-8.8-16.2-18.2-32.7-13.8-23.9-18-30.4-21.1-32.7-5.5-4.1-11-5.4-16.7-4.1-3 .7-23.7 12.1-56.7 31.2-28.7 16.5-52.8 30.3-53.6 30.6-1.4.6-1.6-5.7-1.6-62 0-54.3-.2-63.2-1.5-66.4-2-4.7-5-7.8-10-10.5-3.9-2.1-5.2-2.2-40-2.4-19.8-.1-37.1.2-38.5.6"></path></svg>