<svg version="1.0" xmlns="http://www.w3.org/2000/svg" viewBox="21.03 21.14 469.95 469.84"><path d="M184.7 22c-17.3 3-31.8 17.8-34.7 35.6-1.4 8.2-1.2 27.6.2 33.2 1.6 6.4 8.6 13.4 15 15 3.4.9 28 1.2 90.1 1.2 96.7 0 92.6-.3 109.7 8.2 6.9 3.4 10.3 6 18 13.8 7.8 7.7 10.4 11.1 13.8 18 8.5 17.1 8.2 13 8.2 109.7 0 62.1.3 86.7 1.2 90.1 1.6 6.4 8.6 13.4 15 15 5.6 1.4 25 1.6 33.2.2 18.3-3 32.6-17.3 35.6-35.6 1.3-7.9 1.3-260.9 0-268.8-3-18.3-17.3-32.6-35.6-35.6-7.2-1.2-262.7-1.1-269.7 0"></path><path d="M56.7 150c-17.3 3-31.8 17.8-34.7 35.6-1.3 7.9-1.3 260.9 0 268.8 3 18.3 17.3 32.6 35.6 35.6 7.9 1.3 260.9 1.3 268.8 0 18.3-3 32.6-17.3 35.6-35.6 1.3-7.9 1.3-260.9 0-268.8-3-18.3-17.3-32.6-35.6-35.6-7.2-1.2-262.7-1.1-269.7 0"></path></svg>