<svg version="1.0" xmlns="http://www.w3.org/2000/svg" viewBox="0.07 37.99 511.82 436.96"><path d="M117.5 39.1C53.5 47.8 8.3 98.2 1.1 168.9-3.3 212 6.4 251.2 30.7 288c11.2 16.9 22.5 30.2 42.8 50.5 21.4 21.4 35.8 34.3 82 73 17.6 14.8 40.8 34.4 51.5 43.5 10.7 9.2 20.9 17.4 22.7 18.4 6.1 3.1 12.7 1.5 17.5-4.3 3.4-4 21.2-74.4 20.2-79.9-.5-3.2-5-8.1-31.7-34.9L204.6 323l26.6-26.7c28.1-28.4 28.1-28.4 27-36.6-.4-2.6-4.9-7.7-24.8-27.7-13.4-13.5-24.4-25.1-24.4-25.8s8.8-23.1 19.6-50c13.8-34.4 19.6-49.9 19.7-52.8.1-6.2-4.1-12.3-17.2-25.4-20.4-20.3-41.3-31.6-69.6-37.5-9.5-2-34-2.8-44-1.4"></path><path d="M362 38.7c-21.5 2.3-52.5 13.9-61.7 23.2-2.1 2-9.4 19.2-28.5 67.2-14.2 35.5-25.8 65.4-25.8 66.6s.5 3.4 1 5c.6 1.5 14.5 16.2 30.8 32.5l29.7 29.8-26.3 26.3c-28.3 28.3-29 29.3-27.2 37.4.7 3 5.1 7.9 24.4 27.2 13 13 23.6 24.4 23.6 25.4s-3.4 15.2-7.5 31.7-7.5 31.2-7.5 32.8c0 3.7 3.5 9 8 12 4.6 3.1 10.2 2.6 16.1-1.6 4.9-3.4 53.9-46.1 83.4-72.6 26.7-24 57.2-54.8 69.5-70.1 18.3-22.9 30.7-44 38-65 18.3-52.4 10.8-112.9-19.1-154.8-8-11.3-24.2-26.7-35.3-33.6C423 42.8 391.2 35.6 362 38.7"></path></svg>