<?xml version="1.0" encoding="utf-8"?>
<!-- Generator: Adobe Illustrator 22.0.1, SVG Export Plug-In . SVG Version: 6.00 Build 0)  -->
<svg version="1.1" id="Ebene_1" xmlns="http://www.w3.org/2000/svg" xmlns:xlink="http://www.w3.org/1999/xlink" x="0px" y="0px"
	 viewBox="0 0 896.1 481.5" style="enable-background:new 0 0 896.1 481.5;" xml:space="preserve">
<style type="text/css">
	.st0{fill:#FFFFFF;}
</style>
<g>
	<path class="st0" d="M174.4,236.6c-12.6-32.1-12.1-63.9,3.8-94.8c10.7-20.7,26.7-36.3,47.7-46.4c25.9-12.4,52.7-13.6,79.5-3.8
		c26.5,9.7,45.7,28.1,59.1,54.1c2.8-10.6,5.3-20.1,8.8-29.2c8.6-22.2,20.9-42.2,37.1-59.6C434,31.6,462.6,14.5,496,5.6
		c23.6-6.3,47.7-7.2,71.8-3.3c40.1,6.6,73.9,25.2,101.5,54.8c22.9,24.6,37.7,53.5,44.9,86.4c5.4,24.4,5.2,48.9,1.7,73.4
		c-0.4,2.8-1.2,5.5-1.9,8.3c-1,4,0.2,4.7,3.9,3.1c16.9-7.4,34.5-10.8,53-10.2c35.5,1.1,65.5,14.7,89.5,40.7
		c28.2,30.5,39.7,67,34.6,108c-5.3,42.6-27,75.6-63.7,97.9c-16.8,10.2-35.4,16.1-55.3,16.6c-13.7,0.3-27.3,0.2-41,0.2
		c-103.8,0-207.6,0-311.4,0c-83.6,0-167.3,0-250.9,0c-16.8,0-33.7,0-50.5-0.3c-28.8-0.6-54.5-10.4-76.3-28.9
		C11.3,422.8-4.5,385,1.1,340c5.7-45.8,30.2-79.4,72.1-99.4c31.7-15.1,64.4-15.9,97.5-4.2C171.7,236.8,172.8,237.3,174.4,236.6z"/>
</g>
</svg>
