<?xml version="1.0" encoding="utf-8"?>
<!-- Generator: Adobe Illustrator 22.0.1, SVG Export Plug-In . SVG Version: 6.00 Build 0)  -->
<svg version="1.1" id="Ebene_1" xmlns="http://www.w3.org/2000/svg" xmlns:xlink="http://www.w3.org/1999/xlink" x="0px" y="0px"
	 viewBox="0 0 402.7 498.8" style="enable-background:new 0 0 402.7 498.8;" xml:space="preserve">
<style type="text/css">
	.st0{fill:#FFFFFF;}
</style>
<g>
	<path class="st0" d="M402.7,249.8c0,68.8,0,137.7,0,206.5c0,22-10.5,36.9-29.5,41.3c-4,0.9-8.3,1.1-12.4,1.1
		c-106.8,0.1-213.6,0.1-320.5,0C16,498.8,0,482.6,0,458.3C0,319,0,179.7,0,40.4c0-24,16.1-40.2,40.1-40.2
		C147.3,0.1,254.5,0.3,361.6,0c23.6-0.1,37.2,15.4,40.1,29.9c0.8,3.7,0.9,7.6,0.9,11.4C402.7,110.9,402.7,180.4,402.7,249.8
		L402.7,249.8z M201.4,61.9c-12.3,1.9-25,2.5-36.8,6c-57.4,16.8-94,54.6-104.7,113.4c-10.8,58.8,10.2,106.9,57.7,143.3
		c3,2.3,5.2,2.6,8.7,0.4c33.8-21.6,67.7-43,101.7-64.5c6.5-4.1,12-3.7,16.2,1s4,10.2-0.8,16.2c-8.7,11.1-17.5,22.2-26.3,33.4
		c-27.2,34.5-54.5,69-81.6,103.7c-2,2.5-3.3,6.2-3.5,9.4c-0.1,4.1,2.9,7.1,7,8.1c4.8,1.2,8.3-0.9,11.2-4.7
		c18.3-23.3,36.8-46.5,55-69.9c3.6-4.7,7.2-7.9,13.5-7.5c3.2,0.2,6.6-1,9.8-1.6c75.5-14.5,126.6-85.9,115.7-161.5
		C334,115.9,273.5,63.3,201.4,61.9z M57.5,460.6c0-10.7-8.6-19.3-19.3-19.3c-10.8,0-19.3,8.3-19.4,19.1c-0.2,10.7,8.3,19.4,19,19.5
		C48.8,480.1,57.5,471.6,57.5,460.6z M38.2,57.6c10.8,0,19.3-8.6,19.3-19.4c0-10.7-8.6-19.3-19.4-19.3c-10.7,0-19.4,8.6-19.3,19.4
		S27.5,57.7,38.2,57.6z M383.8,38.2c-0.1-10.8-8.7-19.4-19.4-19.3c-10.8,0.1-19.3,8.7-19.2,19.5c0,11,8.7,19.5,19.9,19.3
		C375.5,57.5,383.9,48.8,383.8,38.2z M345.1,460.8c0,10.8,8.6,19.3,19.4,19.3c10.8-0.1,19.3-8.7,19.2-19.5
		c-0.1-10.8-8.6-19.3-19.4-19.3C353.6,441.3,345.1,450,345.1,460.8z"/>
	<path class="st0" d="M239.4,207.2c0,21.2-16.9,38.1-38,38.1c-21.2-0.1-38-16.9-38-38.1c0-21.5,17-38.2,38.5-38.1
		C222.8,169.3,239.4,186.2,239.4,207.2z"/>
</g>
</svg>
