<?xml version="1.0" encoding="utf-8"?>
<!-- Generator: Adobe Illustrator 22.0.1, SVG Export Plug-In . SVG Version: 6.00 Build 0)  -->
<svg version="1.1" id="Ebene_1" xmlns="http://www.w3.org/2000/svg" xmlns:xlink="http://www.w3.org/1999/xlink" x="0px" y="0px"
	 viewBox="0 0 36.5 36.4" style="enable-background:new 0 0 36.5 36.4;" xml:space="preserve">
<style type="text/css">
	.st0{fill:#FFFFFF;}
</style>
<g>
	<path class="st0" d="M36.5,16.8c0,0.9,0,1.9,0,2.8c-0.1,0-0.1,0.1-0.1,0.1c-0.2,2.1-0.7,4.1-1.6,6.1c-3.2,7-10.7,11.3-18.3,10.5
		c-4.2-0.4-7.9-2.1-10.8-5C0.4,26-1.3,19.7,1,12.7C3.2,5.6,8.3,1.5,15.7,0.2c0.4-0.1,0.8,0,1.2-0.2c0.8,0,1.6,0,2.3,0
		c0.1,0.1,0.1,0.1,0.2,0c0.1,0,0.1,0,0.2,0c0,0.1,0.1,0.1,0.2,0.1c2,0.2,3.9,0.6,5.7,1.4c6.1,2.8,9.7,7.5,10.8,14.1
		C36.4,16,36.3,16.4,36.5,16.8z M18.5,20.4c-1.4,0-2.5,0-3.6,0c-3.3,0-5.8,2.2-6.2,5.4c-0.1,1.1,0.1,2,1,2.7c3,2.5,6.5,3.5,10.4,3
		c2.6-0.3,4.9-1.4,6.9-3.1c0.6-0.5,0.9-1.2,0.9-2c0-3-2.3-5.6-5.3-5.9C21.1,20.3,19.7,20.5,18.5,20.4z M12.2,11.4
		c0,3.3,2.6,6,5.9,6.1s6.1-2.6,6.1-6s-2.7-6-5.9-6.1C15.1,5.4,12.3,8,12.2,11.4z"/>
</g>
</svg>
