<?xml version="1.0" encoding="utf-8"?>
<!-- Generator: Adobe Illustrator 22.0.1, SVG Export Plug-In . SVG Version: 6.00 Build 0)  -->
<svg version="1.1" id="Ebene_1" xmlns="http://www.w3.org/2000/svg" xmlns:xlink="http://www.w3.org/1999/xlink" x="0px" y="0px"
	 viewBox="0 0 128.6 119.8" style="enable-background:new 0 0 128.6 119.8;" xml:space="preserve">
<style type="text/css">
	.st0{fill:#FFFFFF;}
</style>
<g>
	<path class="st0" d="M3.4,57.1c1.7-1.6,3.4-3.2,5.1-4.7c1.2-1.1,2.4-2.3,3.6-3.4c0.1-0.1,0.2-0.4,0.2-0.5c-0.3-1.5-0.5-3.1-0.8-4.6
		c0-0.2-0.2-0.5-0.4-0.5C7.7,42,4.3,40.6,0.8,39.2C0.5,39,0.3,38.9,0,38.8c0.3-1.2,0.5-2.4,0.7-3.6c0.6-2.8,1.2-5.7,1.8-8.5
		C2.6,26.2,2.8,26,3.3,26c3.6,0.2,7.3,0.2,10.9,0.4c0.5,0,0.8-0.2,1.1-0.6c0.7-1.1,1.5-2.3,2.3-3.4c0.3-0.4,0.3-0.6,0.1-1
		c-1.5-3.6-3-7.1-4.6-10.7c3.7-2.4,7.3-4.8,11.1-7.2C25.1,4.2,26,5.1,26.8,6c1.9,2,3.8,4.1,5.7,6.1c0.1,0.1,0.4,0.2,0.6,0.2
		c1.4-0.2,2.8-0.5,4.2-0.8c0.5-0.1,0.8-0.3,1-0.8c1.4-3.4,2.8-6.9,4.2-10.3c0.1-0.1,0.1-0.2,0.2-0.4c1.8,0.4,3.6,0.7,5.3,1.1
		c2.3,0.5,4.6,1,7,1.5c0.5,0.1,0.6,0.2,0.5,0.7c-0.2,3.8-0.3,7.5-0.4,11.3c0,0.3,0.1,0.5,0.4,0.7c1.2,0.8,2.5,1.7,3.7,2.5
		c0.2,0.1,0.5,0.2,0.7,0.1c3.1-1.3,6.1-2.6,9.2-3.9c0.5-0.2,1.1-0.4,1.7-0.7c2.4,3.7,4.8,7.3,7.2,11c-0.9,0.9-1.8,1.7-2.7,2.6
		c-2,1.9-4,3.7-5.9,5.6c-0.1,0.1-0.2,0.4-0.2,0.6c0.3,1.6,0.5,3.1,0.9,4.7c0,0.2,0.3,0.3,0.5,0.4c3.5,1.4,7.1,2.9,10.6,4.3
		c0.1,0,0.2,0.1,0.3,0.2c-0.3,1.2-0.5,2.4-0.7,3.6c-0.6,2.9-1.3,5.8-1.8,8.7c-0.1,0.5-0.3,0.6-0.8,0.6c-3.7-0.2-7.4-0.3-11-0.4
		c-0.5,0-0.7,0.1-1,0.5c-0.8,1.2-1.6,2.3-2.4,3.5c-0.2,0.3-0.3,0.6-0.1,0.9c1.5,3.4,2.9,6.8,4.4,10.3c0.2,0.4,0.1,0.6-0.3,0.8
		c-3.4,2.2-6.8,4.4-10.3,6.6c-0.1,0.1-0.2,0.1-0.3,0.2c-1.2-1.3-2.5-2.7-3.7-4c-1.5-1.6-2.9-3.2-4.4-4.7c-0.1-0.1-0.4-0.2-0.6-0.2
		c-1.5,0.3-3,0.5-4.5,0.8c-0.2,0-0.5,0.3-0.6,0.5c-1.5,3.5-2.9,7.1-4.3,10.6c0,0.1-0.1,0.2-0.1,0.3c-4.3-0.9-8.6-1.8-12.7-2.7
		c0-1.5,0-2.9,0-4.3c0.1-2.5,0.2-5.1,0.3-7.6c0-0.2-0.1-0.5-0.3-0.6c-1.2-0.9-2.5-1.7-3.7-2.6c-0.3-0.2-0.5-0.3-0.9-0.1
		c-2.9,1.2-5.8,2.5-8.7,3.7c-0.7,0.3-1.4,0.6-2.2,0.9C8.1,64.4,5.8,60.8,3.4,57.1z M40.7,24c-9.1-0.1-16.8,7.4-16.8,16.7
		c0,9.4,7.4,16.9,16.8,16.9c9.2,0,16.8-7.5,16.8-16.8S50,24,40.7,24z"/>
	<path class="st0" d="M111.7,96.6c-1.2-1.4-2.4-2.8-3.6-4.1c-0.5-0.6-1-1.1-1.5-1.6c-0.2-0.2-0.5-0.3-0.7-0.3
		c-0.9,0.1-1.8,0.3-2.7,0.4c-0.3,0-0.5,0.2-0.6,0.5c-1,2.2-2,4.5-3,6.7c-0.1,0.2-0.4,0.3-0.5,0.3c-2.7-0.6-5.4-1.3-8.2-2
		c0-0.6,0.1-1.2,0.1-1.8c0.1-2,0.3-4,0.4-6c0-0.2-0.1-0.5-0.3-0.7c-0.7-0.6-1.4-1-2.1-1.6c-0.3-0.2-0.6-0.3-0.9-0.1
		c-2.2,0.8-4.3,1.7-6.5,2.6c-0.5,0.2-0.7,0.2-1-0.3c-1.3-2.2-2.6-4.3-3.9-6.5c-0.2-0.4-0.2-0.6,0.1-0.9c1.8-1.6,3.6-3.1,5.4-4.7
		c0.2-0.1,0.3-0.5,0.2-0.7c-0.1-0.9-0.2-1.8-0.4-2.7c0-0.2-0.3-0.5-0.5-0.6c-2.2-1-4.3-1.9-6.5-2.9c-0.2-0.1-0.3-0.2-0.6-0.3
		c0.7-2.8,1.4-5.6,2.1-8.5c1.1,0.1,2.3,0.1,3.4,0.2c1.4,0.1,2.8,0.2,4.2,0.3c0.4,0,0.6-0.1,0.8-0.4c0.5-0.7,0.9-1.3,1.5-2
		c0.3-0.4,0.3-0.7,0.1-1.1c-0.8-2.1-1.6-4.3-2.5-6.4c-0.2-0.5-0.1-0.7,0.4-1c2.2-1.3,4.4-2.6,6.6-4c0.1-0.1,0.2-0.1,0.4-0.2
		c1.7,1.9,3.3,3.8,4.9,5.7c0.3,0.4,0.6,0.5,1.1,0.4c0.8-0.2,1.6-0.3,2.4-0.4c0.4,0,0.7-0.2,0.8-0.6c0.9-2.2,1.9-4.3,2.8-6.5
		c0.1-0.1,0.1-0.3,0.2-0.5c2.8,0.7,5.6,1.4,8.5,2.1c0,0.7-0.1,1.4-0.1,2.2c-0.1,1.9-0.3,3.8-0.4,5.7c0,0.2,0.1,0.4,0.2,0.5
		c0.8,0.6,1.6,1.3,2.5,1.8c0.2,0.1,0.6,0,0.9-0.1c2.3-0.9,4.6-1.8,6.9-2.7c1.5,2.5,3,5,4.5,7.5c-1.2,1.1-2.4,2.1-3.6,3.1
		c-0.8,0.7-1.6,1.3-2.3,2c-0.1,0.1-0.2,0.4-0.2,0.6c0.1,1,0.3,1.9,0.5,2.9c0,0.2,0.4,0.4,0.6,0.6c2.1,0.9,4.2,1.9,6.3,2.8
		c0.5,0.2,0.6,0.4,0.5,0.9c-0.7,2.6-1.3,5.2-2,7.9c-0.7,0-1.4-0.1-2.1-0.1c-1.9-0.1-3.7-0.3-5.6-0.4c-0.2,0-0.5,0.1-0.6,0.3
		c-0.6,0.8-1.2,1.6-1.8,2.4c-0.1,0.1-0.1,0.4,0,0.6c0.9,2.3,1.7,4.5,2.6,6.8c0.1,0.3,0.1,0.5-0.2,0.6
		C116.5,93.7,114.2,95.1,111.7,96.6z M90.5,71.3c0,6.2,5,11.2,11.2,11.2c6.1,0,11.2-5.1,11.2-11.2s-5.1-11.1-11.2-11.1
		C95.5,60.2,90.5,65.2,90.5,71.3z"/>
	<path class="st0" d="M65.1,118.2c-1.2-1.3-2.4-2.5-3.6-3.8c-0.2-0.2-0.5-0.3-0.7-0.2c-0.6,0-1.1,0.2-1.6,0.3
		c-0.2,0-0.4,0.2-0.5,0.4c-0.7,1.6-1.3,3.2-2,4.9c-1.9-0.4-3.9-0.8-5.8-1.2c0-0.9,0-1.9,0-2.8c0-0.3,0-0.6,0.1-0.8
		c0.3-1.4-0.1-2.5-1.5-3.1c-0.4-0.2-0.7-0.3-1.1-0.1c-1.4,0.6-2.8,1.2-4.2,1.8c-0.1,0-0.2,0.1-0.4,0.1c-0.6-0.8-1.1-1.7-1.7-2.5
		c-0.5-0.8-1.1-1.7-1.6-2.5c1.3-1.2,2.5-2.3,3.7-3.5c0.2-0.2,0.3-0.5,0.3-0.8c0-1.4-0.6-2.4-2.1-2.7c-1.2-0.3-2.3-0.9-3.5-1.4
		c0.4-2,0.8-3.9,1.2-5.9c0.4,0,0.7,0,1,0c1.4,0,2.8,0.1,4.2,0.1c0.2,0,0.5-0.1,0.6-0.3c0.4-0.6,1-1.1,1.1-1.8
		c0.1-0.6-0.4-1.2-0.7-1.9c-0.5-1.1-0.9-2.2-1.4-3.3c1.7-1.1,3.3-2.2,5-3.3c0.8,0.8,1.5,1.6,2.2,2.3c0.2,0.2,0.5,0.5,0.7,0.7
		c0.3,0.3,0.7,0.9,1,0.9c0.7,0,1.5-0.2,2.2-0.4c0.1,0,0.2-0.2,0.3-0.4c0.5-1.3,1.1-2.7,1.6-4.1c0.1-0.2,0.2-0.5,0.3-0.7
		c0.2,0,0.3,0,0.4,0c1.8,0.4,3.6,0.8,5.3,1.1c0,1.5,0.1,2.9,0,4.3c-0.1,1,0.2,1.6,1.1,2.1c0.8,0.5,1.3,0.5,2.1,0.1
		c1.3-0.6,2.6-1.1,4-1.7c1.1,1.7,2.2,3.3,3.3,5c-0.7,0.7-1.4,1.4-2.2,2.1c-0.2,0.2-0.4,0.4-0.6,0.5c-1.2,0.7-1.5,1.8-1,3.1
		c0.2,0.4,0.3,0.7,0.7,0.9c1.4,0.5,2.8,1.1,4.2,1.7c0.1,0,0.2,0.1,0.4,0.2c-0.3,1.3-0.5,2.7-0.8,4c-0.1,0.5-0.2,0.9-0.3,1.4
		c0,0.4-0.2,0.5-0.6,0.5c-1.5-0.1-3.1-0.1-4.6-0.1c-0.2,0-0.6,0.2-0.7,0.3c-1.2,1.6-1.2,1.6-0.3,3.5c0.4,0.9,0.8,1.9,1.2,2.9
		c0.1,0.2,0,0.5-0.1,0.6C68.3,116.1,66.7,117.1,65.1,118.2z M65.2,101.1c0-4.2-3.4-7.6-7.7-7.6s-7.6,3.4-7.6,7.7
		c0,4.2,3.4,7.6,7.6,7.6C61.7,108.8,65.2,105.4,65.2,101.1z"/>
</g>
</svg>
