<?xml version="1.0" encoding="utf-8"?>
<!-- Generator: Adobe Illustrator 22.0.1, SVG Export Plug-In . SVG Version: 6.00 Build 0)  -->
<svg version="1.1" id="Ebene_1" xmlns="http://www.w3.org/2000/svg" xmlns:xlink="http://www.w3.org/1999/xlink" x="0px" y="0px"
	 viewBox="0 0 225 183" style="enable-background:new 0 0 225 183;" xml:space="preserve">
<g>
	<path d="M225,0c0,61,0,122,0,183c-1.3-0.1-2.7-0.2-4-0.2c-72.3,0-144.7,0-217,0c-1.3,0-2.7,0.1-4,0.2C0,122,0,61,0,0
		c1.3,0.1,2.7,0.2,4,0.2c72.3,0,144.7,0,217,0C222.3,0.2,223.7,0.1,225,0z M14.1,168.6c65.9,0,131.2,0,196.6,0
		c0-51.6,0-102.9,0-154.2c-65.7,0-131.1,0-196.6,0C14.1,65.9,14.1,117.1,14.1,168.6z"/>
	<path d="M70.3,42.4c18.9,23.6,37.4,46.7,56.2,70.2c9.4-7,18.5-13.8,28.2-21c13.9,20.8,27.7,41.5,41.8,62.7c-56.3,0-111.8,0-168.2,0
		C42.4,117,56.2,80,70.3,42.4z"/>
	<path d="M175.5,70.1c-11.7-0.1-20.7-9.3-20.6-21.1c0.1-11.6,9.6-20.9,21.1-20.7c11.5,0.2,21,9.9,20.8,21.3
		C196.6,61.2,187.3,70.2,175.5,70.1z"/>
</g>
</svg>
