<?xml version="1.0" encoding="utf-8"?>
<!-- Generator: Adobe Illustrator 22.0.1, SVG Export Plug-In . SVG Version: 6.00 Build 0)  -->
<svg version="1.1" id="Ebene_1" xmlns="http://www.w3.org/2000/svg" xmlns:xlink="http://www.w3.org/1999/xlink" x="0px" y="0px"
	 viewBox="0 0 676.9 612.2" style="enable-background:new 0 0 676.9 612.2;" xml:space="preserve">
<style type="text/css">
	.st0{fill:#FFFFFF;}
</style>
<g>
	<path class="st0" d="M42.4,270c0-2.6,0-4.5,0-6.5c0-26.8,0-53.7,0-80.5c0-49,15.9-91.9,49.4-127.7c26.8-28.6,59.7-46.9,98.6-52.8
		C251.3-6.8,304.5,9.7,347.7,54c34,34.8,50.2,77.6,50.7,126.2c0.2,16.7-9.9,30.9-24.7,35.7c-15.6,5.2-31.4,0.3-41.5-12.7
		c-5.6-7.3-7.4-15.9-7.6-24.9c-0.5-31-12.6-56.7-35.3-77.8c-34.9-32.4-91.6-35.4-129.6-6.6c-27.9,21.2-42.9,49.2-43.4,84.3
		c-0.4,29.5-0.1,59-0.1,88.5c0,0.8,0.1,1.6,0.3,3c73.1,0,146.2,0,220.3,0c-15.2,52.8-30.1,104.8-45.4,158.2
		c50.3-14.5,99.4-28.8,149.1-43.1c0.1,2.3,0.2,4,0.2,5.8c0,59.3,0,118.7,0,178c0,12.7-2.5,24.5-11.5,34.1c-5.5,5.9-12.3,9-20.4,9.2
		c-1.7,0-3.3,0-5,0c-122.3,0-244.7-0.3-367,0.3c-23.3,0.1-34-17.2-36.3-33.1c-0.5-3.6-0.5-7.3-0.5-11c0-84.8,0-169.7-0.1-254.5
		c0-10.9,1.5-21.3,8.1-30.3c6.1-8.5,14.2-13.4,25-13.3C35.9,270.1,38.7,270,42.4,270z M184.8,481.4c0,12.2-0.1,24.3,0,36.5
		c0.1,12,7,18.8,19,18.9c10.5,0,21,0,31.5,0c14,0,20.5-6.5,20.5-20.4c0-23,0.1-46-0.1-69c0-4.8,1.3-8.4,4.3-12.2
		c2.9-3.6,5.2-7.8,6.6-12.2c6.1-18.7,2.7-35.7-10.8-50c-14.6-15.3-33.2-17.5-52.2-11.6c-32,9.9-42.8,49.6-21.7,75.9
		c1.6,2,2.6,5,2.7,7.6C185,457,184.8,469.2,184.8,481.4z"/>
	<path class="st0" d="M329.4,389.6c4.5-12.9,8.5-24.2,12.4-35.5c6.8-19.5,13.6-38.9,20.5-58.4c0.7-2.1,2-4.3,3.6-5.8
		c47.3-45.8,94.6-91.5,142-137.2c26.1-25.2,52.4-50.3,78.6-75.4c2.5-2.4,5.1-4.8,7.8-7.1c7.3-6.4,12.3-7.2,20.8-2.3
		c3.9,2.2,6.3,2,9.3-1.2c3.7-4,8.1-7.4,12.1-11.2c3.2-3,6.7-3.4,10.6-1.6c12.3,5.9,21.2,15.4,28.3,26.7c2.3,3.6,1.9,7.6-1.5,10.9
		c-5.2,5.1-10.4,10.2-14.2,14c1.9,7.2,3.7,12.9,4.6,18.8c0.3,2.1-0.9,4.9-2.3,6.6c-3.9,4.7-8.1,9.3-12.5,13.6
		c-35.7,34.5-71.4,69-107.3,103.2c-36.3,34.5-73.1,68.7-109.7,102.9c-1.5,1.4-3.5,2.6-5.4,3.3c-29.9,11.2-59.9,22.3-89.8,33.4
		C335.2,388.2,333,388.7,329.4,389.6z"/>
</g>
</svg>
