<?xml version="1.0" encoding="utf-8"?>
<!-- Generator: Adobe Illustrator 22.0.1, SVG Export Plug-In . SVG Version: 6.00 Build 0)  -->
<svg version="1.1" id="Ebene_1" xmlns="http://www.w3.org/2000/svg" xmlns:xlink="http://www.w3.org/1999/xlink" x="0px" y="0px"
	 viewBox="0 0 621 720" style="enable-background:new 0 0 621 720;" xml:space="preserve">
<g>
	<path d="M559,0c20.7,0,41.3,0,62,0c0,181,0,362,0,543c-0.3,0.7-0.8,1.5-0.9,2.2c-2.8,18.1-10.6,33.9-22.4,47.7
		c-36.9,42.9-100.7,60.4-154.3,41.8c-25-8.7-45.4-23.5-56.4-48.4c-13.5-30.5-8.1-59.7,11.8-85.1c35.9-45.8,84.3-61,140.8-52.7
		c7.1,1,14,3.4,21,5.2c0-83.4,0-166.6,0-250c-3.3,0.2-6.1,0.3-8.9,0.5c-42.5,3.3-84.8,8.5-126.9,15.8
		c-60.4,10.4-120.1,24.1-178.6,42.7c-4.6,1.5-6,3.5-6,8.3c0.1,108.8,0.1,217.6,0.1,326.4c0,1.7-0.1,3.3,0.1,5
		c2.3,21.3-3.4,40.7-15.1,58.2c-19.2,28.6-46.7,45.5-79.5,54.3c-8.5,2.3-17.2,3.4-25.8,5.1c-8.3,0-16.7,0-25,0
		c-1.4-0.3-2.9-0.6-4.3-1c-12.3-3.3-25.2-5.3-36.8-10.3c-25.5-10.9-43.8-29.1-51.4-56.6c-1-3.6-1.7-7.4-2.6-11.1c0-5.7,0-11.3,0-17
		c0.3-1.1,0.7-2.2,0.9-3.3c2.4-16.4,8.9-31.2,19.4-43.8c35-42,80.6-57.4,134.1-51.3c9.3,1.1,18.4,4.1,28,6.4c0-2.1,0-4.2,0-6.4
		c0.1-144.1,0.2-288.2,0.2-432.3c0-12,0-12.1,11.1-16.5c108.7-42.7,221.4-67.6,337.9-75C540.8,1.3,549.9,0.6,559,0z"/>
</g>
</svg>
