<svg viewBox="0 0 24 24" xmlns="http://www.w3.org/2000/svg"><g id="Layer_2" data-name="Layer 2"><path d="m6.25 14.5a1.75 1.75 0 1 1 1.75 1.75 1.76 1.76 0 0 1 -1.75-1.75zm-4-5.75h19.5v10.75a2.25 2.25 0 0 1 -2.25 2.25h-15a2.25 2.25 0 0 1 -2.25-2.25zm15.4 8.25a.75.75 0 0 0 1.5 0v-3a.75.75 0 0 0 -1.5 0zm-2.4 0a.75.75 0 0 0 1.5 0v-5a.75.75 0 0 0 -1.5 0zm-2.5 0a.75.75 0 0 0 1.5 0v-2a.75.75 0 0 0 -1.5 0zm-8-2.5a3.25 3.25 0 1 0 3.25-3.25 3.26 3.26 0 0 0 -3.25 3.25zm17-10v2.75h-19.5v-2.75a2.25 2.25 0 0 1 2.25-2.25h15a2.25 2.25 0 0 1 2.25 2.25zm-14.5.5a.76.76 0 0 0 -.75-.75h-1a.75.75 0 0 0 0 1.5h1a.76.76 0 0 0 .75-.75zm3 0a.76.76 0 0 0 -.75-.75h-1a.75.75 0 0 0 0 1.5h1a.76.76 0 0 0 .75-.75z"/></g></svg>