<svg clip-rule="evenodd" fill-rule="evenodd" height="512" stroke-linejoin="round" stroke-miterlimit="2" viewBox="0 0 24 24" width="512" xmlns="http://www.w3.org/2000/svg"><g transform="translate(-240 -196)"><path d="m257 216h4 .013c.546-.007.987-.452.987-1v-6c0-.552-.448-1-1-1h-4c-.552 0-1 .448-1 1v6c0 .552.448 1 1 1zm-3-3v-4c0-1.657 1.343-3 3-3h3v-3c0-.796-.316-1.559-.879-2.121-.562-.563-1.325-.879-2.121-.879h-12c-.796 0-1.559.316-2.121.879-.563.562-.879 1.325-.879 2.121v7c0 .796.316 1.559.879 2.121.562.563 1.325.879 2.121.879h5v1h-1c-.552 0-1 .448-1 1s.448 1 1 1h4c.552 0 1-.448 1-1s-.448-1-1-1h-1v-1z"/></g></svg>