<svg id="Glyph" enable-background="new 0 0 32 32" height="512" viewBox="0 0 32 32" width="512" xmlns="http://www.w3.org/2000/svg"><path d="m29.975 17.035c-.27 2.857-2.816 4.965-5.685 4.965h-1.279c.359-1.512.471-3.088.487-4.618.008-.873-.543-1.644-1.37-1.92l-5.495-1.832c-.416-.139-.865-.134-1.266 0l-5.496 1.832c-.826.276-1.377 1.048-1.369 1.922.016 1.529.128 3.104.487 4.616h-1.768c-2.629 0-4.974-1.933-5.202-4.551-.196-2.255 1.106-4.232 3.021-5.049-.281-2.784 2.198-4.857 4.787-4.312 1.242-2.425 3.761-4.088 6.673-4.088 3.887 0 7.074 2.959 7.453 6.745.016.157.147.268.305.262 3.32-.148 6.034 2.666 5.717 6.028z"/><path d="m15.842 15.053-5.495 1.832c-.207.069-.347.266-.345.484.05 4.827 1.121 8.68 5.998 10.631 4.877-1.951 5.948-5.804 5.998-10.632.002-.218-.138-.415-.345-.484l-5.495-1.832c-.103-.034-.213-.034-.316.001zm3.006 4.477-2.5 4c-.162.258-.432.429-.735.463-.038.005-.075.007-.113.007-.264 0-.519-.104-.707-.293l-1.483-1.482c-.391-.391-.391-1.023 0-1.414.39-.391 1.023-.391 1.414 0l.594.594 1.833-2.935c.293-.469.91-.611 1.378-.317.47.291.612.909.319 1.377z"/></svg>