<svg id="Layer_2" enable-background="new 0 0 32 32" height="512" viewBox="0 0 32 32" width="512" xmlns="http://www.w3.org/2000/svg"><g><path d="m6.92999 24.67999c.04999.01001.10004.01001.15003.01001h.85998v-4.63c0-1.32001 1.02997-2.41003 2.33002-2.48999.25-2.94001 2.72998-5.26001 5.72998-5.26001s5.47998 2.32001 5.72998 5.26001c1.30005.07995 2.33002 1.16998 2.33002 2.48999v4.63h.85999c.04999 0 .10004 0 .15002-.01001 3.38-.5 5.92999-3.47003 5.92999-6.91003 0-3.69-2.88-6.71997-6.51001-6.97998-.20996-1.89996-1.06-3.66998-2.45001-5.06-1.62-1.62-3.76996-2.5-6.03998-2.5-4.38 0-8 3.31-8.48999 7.56-3.63001.26001-6.51001 3.28998-6.51001 6.97998 0 3.44 2.54999 6.41003 5.92999 6.91003z"/><path d="m16 13.81c-2.34003 0-4.25 1.90997-4.25 4.25v1h-1.31c-.54999 0-1 .45001-1 1v7.70996c0 .56.45001 1 1 1h11.12c.54999 0 1-.44 1-1v-7.70996c0-.54999-.45001-1-1-1h-1.31v-1c0-2.34003-1.90997-4.25-4.25-4.25zm2.25 5.25h-4.5v-1c0-1.23999 1.01001-2.25 2.25-2.25s2.25 1.01001 2.25 2.25z"/></g></svg>