<svg enable-background="new 0 0 64 64" viewBox="0 0 64 64" xmlns="http://www.w3.org/2000/svg"><g id="Layer_1"/><g id="Crash"/><g id="Like"/><g id="DWG"/><g id="Drawers"/><g id="Music_File"/><g id="Image"/><g id="Zip_Document"/><g id="Iso_File"/><g id="Media"/><g id="Document"/><g id="File_Lock"/><g id="Denied_00000077326082999934128600000013420063779856627390_"/><g id="Denied"/><g id="Delete"/><g id="Warning"/><g id="Upload_File"/><g id="Download_File"><path d="m56.41 18.59-18-18c-.37-.38-.88-.59-1.41-.59h-24c-3.31 0-6 2.69-6 6v52c0 3.31 2.69 6 6 6h38c3.31 0 6-2.69 6-6v-38c0-.53-.21-1.04-.59-1.41zm-30.824 14.996c.781-.781 2.047-.781 2.828 0l1.586 1.586v-9.172c0-1.104.896-2 2-2s2 .896 2 2v9.172l1.586-1.586c.781-.781 2.047-.781 2.828 0s.781 2.047 0 2.828l-5 5c-.391.391-.902.586-1.414.586s-1.023-.195-1.414-.586l-5-5c-.781-.781-.781-2.047 0-2.828zm13.414 15.414h-14c-1.104 0-2-.896-2-2s.896-2 2-2h14c1.104 0 2 .896 2 2s-.896 2-2 2zm0-31v-11.17l11.17 11.17z"/></g><g id="Upload"/><g id="Download"/><g id="Folder_00000078750978701455190520000002644908250257401778_"/><g id="Favourite_00000139988144372845953920000011429305832379334312_"/><g id="Favourite"/><g id="Box"/><g id="Add_00000093178950794380653470000005543089263080414132_"/><g id="Folder_00000120537547535892533910000007169812896968157112_"/><g id="Coding_File"/><g id="Add"/><g id="Folder"/><g id="Secure_Folder"/><g id="File"/></svg>