<svg id="Layer_1" height="512" viewBox="0 0 48 48" width="512" xmlns="http://www.w3.org/2000/svg" data-name="Layer 1"><path d="m15 4.5h-6a5.506 5.506 0 0 0 -5.5 5.5v6a1.5 1.5 0 0 0 3 0v-6a2.5 2.5 0 0 1 2.5-2.5h6a1.5 1.5 0 0 0 0-3z"/><path d="m39 4.5h-6a1.5 1.5 0 0 0 0 3h6a2.5 2.5 0 0 1 2.5 2.5v6a1.5 1.5 0 0 0 3 0v-6a5.506 5.506 0 0 0 -5.5-5.5z"/><path d="m43 30.5a1.5 1.5 0 0 0 -1.5 1.5v6a2.5 2.5 0 0 1 -2.5 2.5h-6a1.5 1.5 0 0 0 0 3h6a5.506 5.506 0 0 0 5.5-5.5v-6a1.5 1.5 0 0 0 -1.5-1.5z"/><path d="m15 40.5h-6a2.5 2.5 0 0 1 -2.5-2.5v-6a1.5 1.5 0 0 0 -3 0v6a5.506 5.506 0 0 0 5.5 5.5h6a1.5 1.5 0 0 0 0-3z"/><path d="m41.42 21.94-2.9-3.07a19.75 19.75 0 0 0 -11.91-6.07 20.121 20.121 0 0 0 -5.22 0 19.75 19.75 0 0 0 -11.91 6.07l-2.9 3.07a2.984 2.984 0 0 0 0 4.12l2.9 3.07a19.75 19.75 0 0 0 11.91 6.07 20.121 20.121 0 0 0 5.22 0 19.75 19.75 0 0 0 11.91-6.07l2.9-3.07a2.984 2.984 0 0 0 0-4.12zm-1.45 2.75-2.9 3.06a18.011 18.011 0 0 1 -3.82 3.07 17.406 17.406 0 0 1 -6.95 2.4h-.02a.037.037 0 0 1 -.03.01c-.02 0-.04.01-.06.01a18.512 18.512 0 0 1 -4.38 0c-.02 0-.04-.01-.06-.01a.037.037 0 0 1 -.03-.01h-.02a17.406 17.406 0 0 1 -6.95-2.4 18.011 18.011 0 0 1 -3.82-3.07l-2.9-3.06a1 1 0 0 1 0-1.38l2.9-3.06a18.011 18.011 0 0 1 3.82-3.07 17.406 17.406 0 0 1 6.95-2.4h.02a.037.037 0 0 1 .03-.01c.02 0 .04-.01.06-.01a18.512 18.512 0 0 1 4.38 0c.02 0 .04.01.06.01a.037.037 0 0 1 .03.01h.02a17.406 17.406 0 0 1 6.95 2.4 18.011 18.011 0 0 1 3.82 3.07l2.9 3.06a1 1 0 0 1 0 1.38z"/><path d="m33.25 17.18a11.491 11.491 0 0 0 -6.64-4.38 11.5 11.5 0 0 0 -5.22 0 11.5 11.5 0 0 0 0 22.4 11.5 11.5 0 0 0 5.22 0 11.489 11.489 0 0 0 6.64-18.02zm.14 8.27c-.01.04-.01.09-.02.13s-.02.08-.03.13c-.02.11-.04.21-.06.31a2.817 2.817 0 0 1 -.07.31.292.292 0 0 0 -.02.09c-.04.13-.08.27-.12.4-.04.15-.1.3-.15.45-.08.22-.17.43-.26.64-.11.24-.23.47-.35.7-.07.11-.13.23-.2.34s-.13.21-.21.32a.076.076 0 0 0 -.02.04c-.13.18-.26.36-.38.53a.176.176 0 0 0 -.04.05c-.19.22-.37.44-.57.64-.07.08-.16.17-.24.25s-.17.17-.26.25a.031.031 0 0 0 -.02.01c-.19.17-.39.34-.59.5s-.42.31-.64.45c-.16.1-.32.2-.48.29-.32.18-.66.34-1 .49-.18.07-.35.14-.53.2-.1.04-.21.07-.31.1-.12.04-.24.07-.36.1-.05.02-.11.03-.16.05h-.02a.037.037 0 0 1 -.03.01c-.02 0-.04.01-.06.01-.24.06-.49.11-.74.15a1.366 1.366 0 0 1 -.19.02 5.225 5.225 0 0 1 -.68.07c-.19.01-.38.02-.58.02s-.39-.01-.58-.02a5.225 5.225 0 0 1 -.68-.07 1.366 1.366 0 0 1 -.19-.02c-.25-.04-.5-.09-.74-.15-.02 0-.04-.01-.06-.01a.037.037 0 0 1 -.03-.01h-.02c-.05-.02-.11-.03-.16-.05-.12-.03-.24-.06-.36-.1-.1-.03-.21-.06-.31-.1-.18-.06-.35-.13-.53-.2-.34-.15-.68-.31-1-.49-.16-.09-.32-.19-.48-.29-.22-.14-.43-.29-.64-.45s-.4-.33-.59-.5a.031.031 0 0 0 -.02-.01c-.09-.08-.17-.16-.26-.25s-.16-.16-.24-.25c-.2-.2-.38-.42-.57-.64a.176.176 0 0 0 -.04-.05c-.12-.17-.25-.35-.38-.53a.076.076 0 0 0 -.02-.04c-.08-.11-.14-.21-.21-.32s-.13-.23-.2-.34c-.12-.23-.24-.46-.35-.7-.09-.21-.18-.42-.26-.64-.05-.15-.11-.3-.15-.45-.04-.13-.08-.27-.12-.4a.292.292 0 0 0 -.02-.09 2.817 2.817 0 0 1 -.07-.31c-.02-.1-.04-.2-.06-.31-.01-.05-.02-.09-.03-.13s-.01-.09-.02-.13c-.03-.21-.05-.41-.07-.62a8.631 8.631 0 0 1 0-1.66c.02-.21.04-.41.07-.62.01-.04.01-.09.02-.13s.02-.08.03-.13c.02-.11.04-.21.06-.31a2.817 2.817 0 0 1 .07-.31.292.292 0 0 0 .02-.09c.04-.13.08-.27.12-.4.04-.15.1-.3.15-.45.08-.22.17-.43.26-.64.11-.24.23-.47.35-.7.07-.11.13-.23.2-.34s.13-.21.21-.32a.076.076 0 0 0 .02-.04c.13-.18.26-.36.38-.53a.176.176 0 0 0 .04-.05c.19-.22.37-.44.57-.64.08-.09.16-.17.24-.25s.17-.17.26-.25a.031.031 0 0 0 .02-.01c.19-.17.39-.34.59-.5s.42-.31.64-.45c.16-.1.32-.2.48-.29.32-.18.66-.34 1-.49.18-.07.35-.14.53-.2a2.413 2.413 0 0 1 .25-.08c.19-.07.39-.12.58-.17h.02a.037.037 0 0 1 .03-.01c.02 0 .04-.01.06-.01.24-.06.49-.11.74-.15a1.366 1.366 0 0 1 .19-.02 5.225 5.225 0 0 1 .68-.07c.19-.01.38-.02.58-.02s.39.01.58.02a5.225 5.225 0 0 1 .68.07 1.366 1.366 0 0 1 .19.02c.25.04.5.09.74.15.02 0 .04.01.06.01a.037.037 0 0 1 .03.01h.02c.19.05.39.1.58.17a2.413 2.413 0 0 1 .25.08c.18.06.35.13.53.2.34.15.68.31 1 .49.16.09.32.19.48.29.22.14.43.29.64.45s.4.33.59.5a.031.031 0 0 0 .02.01c.09.08.17.16.26.25s.17.17.24.25c.2.2.38.42.57.64a.176.176 0 0 0 .04.05c.12.17.25.35.38.53a.076.076 0 0 0 .02.04c.08.11.14.21.21.32s.13.23.2.34c.12.23.24.46.35.7.09.21.18.42.26.64.05.15.11.3.15.45.04.13.08.27.12.4a.292.292 0 0 0 .02.09 2.817 2.817 0 0 1 .07.31c.02.1.04.2.06.31.01.05.02.09.03.13s.01.09.02.13c.03.21.05.41.07.62a8.631 8.631 0 0 1 0 1.66c-.02.21-.04.41-.07.62z"/><path d="m30.56 21.57a3.1 3.1 0 0 1 -1.69 1.3 3.158 3.158 0 0 1 -.87.13 3.009 3.009 0 0 1 -3-3 3.158 3.158 0 0 1 .13-.87 3.1 3.1 0 0 1 1.3-1.69 6.721 6.721 0 0 0 -2.43-.44 7 7 0 1 0 7 7 6.721 6.721 0 0 0 -.44-2.43z"/></svg>