<svg enable-background="new 0 0 512 512" height="512" viewBox="0 0 512 512" width="512" xmlns="http://www.w3.org/2000/svg"><g id="_x31_5_Eye_Scanner"><g><path d="m478.746 276.322c10.451-11.56 10.451-29.084 0-40.643-13.513-14.938-34.468-36.104-60.754-56.637h-81.498c19.16 20.005 30.878 47.083 30.878 76.958 0 61.545-49.828 111.373-111.373 111.373s-111.372-49.828-111.372-111.373c0-29.876 11.718-56.954 30.878-76.958h-81.498c-26.286 20.533-47.241 41.699-60.754 56.637-10.451 11.56-10.451 29.084 0 40.643 35.471 39.218 121.825 121.349 222.747 121.349s187.276-82.131 222.746-121.349z"/><path d="m256 114.329c-37.582 0-73.158 11.401-104.828 27.764h209.656c-31.67-16.363-67.246-27.764-104.828-27.764z"/><path d="m276.654 197.698c-6.467-2.29-13.399-3.601-20.654-3.601-34.206 0-61.902 27.696-61.902 61.902s27.696 61.902 61.902 61.902 61.902-27.696 61.902-61.902c0-7.255-1.311-14.187-3.6-20.654-4.747 8.533-13.745 14.371-24.209 14.371-15.367 0-27.81-12.442-27.81-27.81 0-10.462 5.837-19.461 14.371-24.208z"/><path d="m504.082 0h-117.577c-4.371 0-7.918 3.544-7.918 7.918s3.546 7.918 7.918 7.918h109.66v109.662c0 4.374 3.546 7.918 7.918 7.918 4.371 0 7.918-3.544 7.918-7.918v-117.58c-.001-4.374-3.547-7.918-7.919-7.918z"/><path d="m125.495 496.165h-109.66v-109.662c0-4.374-3.546-7.918-7.918-7.918s-7.917 3.544-7.917 7.918v117.58c0 4.373 3.546 7.917 7.918 7.917h117.577c4.371 0 7.918-3.544 7.918-7.918-.001-4.373-3.547-7.917-7.918-7.917z"/><path d="m504.082 378.585c-4.371 0-7.918 3.544-7.918 7.918v109.662h-109.66c-4.371 0-7.918 3.544-7.918 7.918s3.546 7.918 7.918 7.918h117.577c4.371 0 7.918-3.544 7.918-7.918v-117.58c.001-4.374-3.545-7.918-7.917-7.918z"/><path d="m7.918 133.415c4.371 0 7.918-3.544 7.918-7.918v-109.662h109.66c4.371 0 7.918-3.544 7.918-7.918s-3.548-7.917-7.919-7.917h-117.577c-4.372 0-7.918 3.544-7.918 7.918v117.58c0 4.373 3.546 7.917 7.918 7.917z"/><path d="m464.778 160.546c0-4.374-3.546-7.918-7.918-7.918h-401.721c-4.371 0-7.918 3.544-7.918 7.918s3.546 7.918 7.918 7.918h401.722c4.371 0 7.917-3.544 7.917-7.918z"/></g></g></svg>