<svg id="Layer_1" viewBox="0 0 512 512" xmlns="http://www.w3.org/2000/svg" data-name="Layer 1"><path d="m210.465 9.673c-4.661-1.111-9.524-1.673-14.469-1.673-34.561 0-62.678 28.144-62.678 62.738 0 20.197 9.797 39.286 26.206 51.063 3.141 2.254 3.859 6.627 1.605 9.769-2.254 3.141-6.628 3.859-9.769 1.605-20.064-14.4-32.043-37.741-32.043-62.437 0-5.891.689-11.621 1.951-17.135-35.138 9.455-60.449 41.652-60.449 79.014 0 11.669 2.417 22.954 7.182 33.54 1.587 3.525.015 7.67-3.51 9.257-.933.419-1.909.619-2.87.619-2.67 0-5.22-1.536-6.387-4.128-3.795-8.43-6.315-17.236-7.542-26.302-24.391 13.85-39.694 39.727-39.694 68.36 0 16.704 5.285 32.877 14.993 46.233 10.938-8.217 23.998-13.193 37.823-14.249 3.855-.305 7.218 2.591 7.513 6.446s-2.592 7.219-6.446 7.513c-30.214 2.308-53.882 27.911-53.882 58.289 0 25.074 15.98 47.071 39.013 55.171.711-11.528 3.463-22.694 8.223-33.269 1.587-3.525 5.73-5.095 9.257-3.51 3.525 1.587 5.097 5.731 3.51 9.257-4.766 10.586-7.182 21.871-7.182 33.54 0 37.362 25.311 69.559 60.449 79.014-1.262-5.514-1.951-11.244-1.951-17.135 0-24.696 11.979-48.037 32.043-62.437 3.142-2.254 7.515-1.536 9.769 1.605s1.535 7.514-1.605 9.769c-16.409 11.777-26.206 30.866-26.206 51.063 0 34.594 28.117 62.738 62.678 62.738 4.945 0 9.809-.562 14.454-1.669 16.776-3.959 28.038-18.205 28.038-35.453v-55.083c-3.75 4.158-8.167 7.773-13.162 10.662-8.288 4.78-17.73 7.268-27.252 7.269-2.806 0-5.617-.216-8.409-.653-3.819-.598-6.431-4.179-5.833-7.999.598-3.819 4.176-6.429 7.999-5.833 9.254 1.449 18.417-.248 26.495-4.907 12.718-7.355 20.437-21.036 20.163-35.719v-60.668h-32.503v-.006c-.048 0-.094.005-.142.005-8.172-.149-15.772 4.11-19.825 11.158-2.599 4.488-3.537 9.553-2.725 14.669.607 3.818-1.997 7.405-5.814 8.012-.372.059-.742.088-1.107.088-3.382 0-6.357-2.456-6.904-5.902-1.305-8.209.267-16.684 4.425-23.864 6.568-11.421 18.875-18.36 32.093-18.156v-.004h32.503v-87.892h-32.5c-.202.003-.404.006-.605.006-13.004 0-25.023-6.917-31.501-18.185-4.147-7.161-5.719-15.635-4.414-23.845.607-3.817 4.197-6.418 8.012-5.814 3.818.606 6.421 4.193 5.814 8.012-.812 5.116.125 10.181 2.714 14.65 4.063 7.067 11.644 11.318 19.836 11.177.048-.001.094.004.142.004v-.005h32.503v-60.668c.273-14.684-7.445-28.364-20.17-35.724-8.072-4.654-17.232-6.351-26.487-4.903-3.822.592-7.401-2.014-7.999-5.833-.598-3.82 2.014-7.4 5.833-7.999 12.272-1.918 24.932.428 35.654 6.611 4.998 2.89 9.417 6.508 13.169 10.667v-55.115c0-17.23-11.261-31.464-28.022-35.419zm-89.414 295.339c-1.069.588-2.226.867-3.365.867-2.471 0-4.867-1.311-6.141-3.63-1.862-3.388-.625-7.644 2.763-9.506 13.414-7.373 21.747-21.457 21.747-36.758s-8.333-29.355-21.747-36.728c-3.388-1.862-4.625-6.118-2.763-9.506s6.118-4.625 9.506-2.763c17.89 9.833 29.004 28.607 29.004 48.997s-11.114 39.194-29.004 49.027zm189.483-5.066h-58.047v-87.892h58.047zm41.573-122.097v156.303c0 4.062-3.319 7.367-7.398 7.367h-92.222v-27.573h65.047c3.866 0 7-3.134 7-7v-101.892c0-3.866-3.134-7-7-7h-65.047v-27.573h92.222c4.079 0 7.398 3.305 7.398 7.367zm39.92 52.225h-25.92v-14h25.92c3.866 0 7 3.134 7 7s-3.134 7-7 7zm-47.303-104.401c3.043-10.467 12.724-18.143 24.171-18.143 13.879 0 25.171 11.279 25.171 25.143s-11.292 25.171-25.171 25.171c-11.45 0-21.132-7.688-24.173-18.171h-17.472v16.809h-14v-23.809c0-3.866 3.134-7 7-7zm43.263 57.49 17.652-30.548c1.251-2.165 3.561-3.498 6.061-3.498h15.004c3.041-10.483 12.723-18.171 24.173-18.171 13.879 0 25.171 11.292 25.171 25.171s-11.292 25.143-25.171 25.143c-11.447 0-21.128-7.675-24.171-18.143h-10.966l-17.652 30.548c-1.251 2.165-3.561 3.498-6.061 3.498h-25.92v-14h21.881zm4.04 112.764h-25.92v-14h25.92c3.866 0 7 3.134 7 7s-3.134 7-7 7zm-45.444 172.272c0 13.864-11.292 25.143-25.171 25.143s-25.171-11.279-25.171-25.143c0-11.45 7.688-21.133 18.171-24.174v-23.605l-30.574-17.653c-2.166-1.25-3.5-3.561-3.5-6.062v-41.187h14v37.145l30.574 17.653c2.166 1.25 3.5 3.561 3.5 6.062v27.647c10.483 3.041 18.171 12.723 18.171 24.174zm129.465-112.315c0 13.879-11.292 25.171-25.171 25.171-11.45 0-21.132-7.688-24.173-18.171h-15.004c-2.5 0-4.81-1.333-6.061-3.498l-17.652-30.548h-21.881v-14h25.92c2.5 0 4.81 1.333 6.061 3.498l17.652 30.548h10.966c3.043-10.467 12.724-18.143 24.171-18.143 13.879 0 25.171 11.279 25.171 25.143zm27.951-99.898c0 13.879-11.292 25.171-25.171 25.171-11.44 0-21.115-7.674-24.165-18.143h-88.557v-14h88.543c3.034-10.482 12.721-18.171 24.179-18.171 13.879 0 25.171 11.279 25.171 25.143zm-109.934 123.342c0 13.864-11.292 25.143-25.171 25.143-11.447 0-21.128-7.675-24.171-18.143h-24.474c-3.866 0-7-3.134-7-7v-23.809h14v16.809h17.472c3.041-10.483 12.723-18.171 24.173-18.171 13.879 0 25.171 11.292 25.171 25.171zm-113.728-222.846v-41.187c0-2.501 1.334-4.812 3.5-6.062l30.574-17.653v-23.605c-10.483-3.041-18.171-12.723-18.171-24.173 0-13.864 11.292-25.143 25.171-25.143s25.171 11.279 25.171 25.143c0 11.45-7.688 21.132-18.171 24.173v27.647c0 2.501-1.334 4.812-3.5 6.062l-30.574 17.653v37.145z"/></svg>