<svg clip-rule="evenodd" fill-rule="evenodd" height="512" stroke-linejoin="round" stroke-miterlimit="2" viewBox="0 0 32 32" width="512" xmlns="http://www.w3.org/2000/svg"><g transform="translate(-37 -259)"><g id="Layer2"><path d="m65 270.171v-1.171c0-1.657-1.343-3-3-3h-10.404c-.522-.905-1.371-1.559-2.354-1.843-.046-.013-.091-.023-.138-.03l-.832-.117c-.046-.007-.093-.01-.14-.01-1.746 0-4.345 0-6.132 0-.796 0-1.559.316-2.121.879-.563.562-.879 1.325-.879 2.121v16c0 .796.316 1.559.879 2.121.562.563 1.325.879 2.121.879h22c1.657 0 3-1.343 3-3v-10c0-1.306-.835-2.418-2-2.829zm-13 5.806v6.112c0 .552.448 1 1 1s1-.448 1-1v-6.112l2.301 2.25c.395.385 1.028.378 1.414-.017.386-.394.379-1.028-.016-1.414l-3.301-3.226c-.777-.76-2.019-.76-2.796 0l-3.301 3.226c-.395.386-.402 1.02-.016 1.414.386.395 1.019.402 1.414.017zm.589-7.977.709 1.441c.168.342.516.559.897.559h8.805v-1c0-.552-.448-1-1-1z"/></g></g></svg>