<svg viewBox="0 -63 512 511" xmlns="http://www.w3.org/2000/svg"><path d="m454.660156 270.101562c-3.316406 0-6.5625.296876-9.726562.839844.316406-3.316406.492187-6.675781.492187-10.074218 0-58.234376-47.207031-105.441407-105.441406-105.441407-55.714844 0-101.300781 43.21875-105.148437 97.953125-8.734376-4.011718-18.441407-6.261718-28.679688-6.261718-38.015625 0-68.832031 30.816406-68.832031 68.832031s30.816406 68.832031 68.832031 68.832031h248.503906c31.667969 0 57.339844-25.671875 57.339844-57.339844 0-31.667968-25.671875-57.339844-57.339844-57.339844zm0 0"/><path d="m38.722656 80.414062c29.472656 11.398438 68.976563 17.675782 111.230469 17.675782s81.757813-6.277344 111.230469-17.675782c23.523437-9.097656 38.722656-21.3125 38.722656-31.121093 0-9.804688-15.199219-22.019531-38.722656-31.117188-29.472656-11.398437-68.976563-17.675781-111.230469-17.675781s-81.757813 6.277344-111.230469 17.675781c-23.523437 9.097657-38.722656 21.3125-38.722656 31.117188 0 9.808593 15.199219 22.023437 38.722656 31.121093zm0 0"/><path d="m38.722656 195.726562c29.472656 11.398438 68.976563 17.675782 111.230469 17.675782 22.984375 0 45.148437-1.863282 65.332031-5.390625 7.304688-17.242188 18.179688-32.933594 32.167969-46.03125 15.140625-14.179688 33.066406-24.519531 52.453125-30.515625v-37.03125c-7.863281 5.128906-17.1875 9.816406-27.902344 13.960937-32.839844 12.699219-76.183594 19.695313-122.050781 19.695313-45.863281 0-89.210937-6.996094-122.050781-19.695313-10.714844-4.144531-20.039063-8.832031-27.902344-13.960937v70.171875c0 9.808593 15.199219 22.023437 38.722656 31.121093zm0 0"/><path d="m139.179688 243.339844c-41.84375-1.007813-81.019532-7.859375-111.277344-19.5625-10.714844-4.144532-20.039063-8.828125-27.902344-13.960938v70.175782c0 9.804687 15.199219 22.019531 38.722656 31.117187 19.40625 7.503906 43.160156 12.789063 69.179688 15.523437-.378906-3.511718-.578125-7.074218-.578125-10.6875 0-28.675781 12.28125-54.535156 31.855469-72.605468zm0 0"/></svg>