<?xml version="1.0" encoding="iso-8859-1"?>
<!-- Generator: Adobe Illustrator 19.0.0, SVG Export Plug-In . SVG Version: 6.00 Build 0)  -->
<svg version="1.1" id="Layer_1" xmlns="http://www.w3.org/2000/svg" xmlns:xlink="http://www.w3.org/1999/xlink" x="0px" y="0px"
	 viewBox="0 0 512 512" style="enable-background:new 0 0 512 512;" xml:space="preserve">
<g>
	<g>
		<g>
			<path d="M42.667,192h384c23.521,0,42.667-19.135,42.667-42.667v-64c0-23.531-19.146-42.667-42.667-42.667h-384
				C19.146,42.667,0,61.802,0,85.333v64C0,172.865,19.146,192,42.667,192z M384,96c11.771,0,21.333,9.573,21.333,21.333
				c0,11.76-9.563,21.333-21.333,21.333c-11.771,0-21.333-9.573-21.333-21.333C362.667,105.573,372.229,96,384,96z M320,96
				c11.771,0,21.333,9.573,21.333,21.333c0,11.76-9.563,21.333-21.333,21.333s-21.333-9.573-21.333-21.333
				C298.667,105.573,308.229,96,320,96z M149.333,96c0-5.896,4.771-10.667,10.667-10.667S170.667,90.104,170.667,96v42.667
				c0,5.896-4.771,10.667-10.667,10.667s-10.667-4.771-10.667-10.667V96z M106.667,96c0-5.896,4.771-10.667,10.667-10.667
				C123.229,85.333,128,90.104,128,96v42.667c0,5.896-4.771,10.667-10.667,10.667c-5.896,0-10.667-4.771-10.667-10.667V96z M64,96
				c0-5.896,4.771-10.667,10.667-10.667c5.896,0,10.667,4.771,10.667,10.667v42.667c0,5.896-4.771,10.667-10.667,10.667
				c-5.896,0-10.667-4.771-10.667-10.667V96z"/>
			<path d="M323.521,233.146c4.125-2.469,6.083-7.375,4.792-11.99c-1.271-4.625-5.479-7.823-10.271-7.823H42.667
				C19.146,213.333,0,232.469,0,256v64c0,23.531,19.146,42.667,42.667,42.667h202.667c5.896,0,10.667-4.771,10.667-10.667
				C256,302.948,281.25,258.521,323.521,233.146z M85.333,309.333c0,5.896-4.771,10.667-10.667,10.667
				C68.771,320,64,315.229,64,309.333v-42.667C64,260.771,68.771,256,74.667,256c5.896,0,10.667,4.771,10.667,10.667V309.333z
				 M128,309.333c0,5.896-4.771,10.667-10.667,10.667c-5.896,0-10.667-4.771-10.667-10.667v-42.667
				c0-5.896,4.771-10.667,10.667-10.667c5.896,0,10.667,4.771,10.667,10.667V309.333z M170.667,309.333
				c0,5.896-4.771,10.667-10.667,10.667s-10.667-4.771-10.667-10.667v-42.667c0-5.896,4.771-10.667,10.667-10.667
				s10.667,4.771,10.667,10.667V309.333z"/>
			<path d="M394.667,234.667c-64.688,0-117.333,52.635-117.333,117.333s52.646,117.333,117.333,117.333S512,416.698,512,352
				S459.354,234.667,394.667,234.667z M444.875,380.875l-42.667,42.667c-2.083,2.083-4.813,3.125-7.542,3.125
				s-5.458-1.042-7.542-3.125l-42.667-42.667c-4.167-4.167-4.167-10.917,0-15.083c4.167-4.167,10.917-4.167,15.083,0l24.488,24.488
				L384,288c0-5.885,4.771-10.667,10.667-10.667c5.885,0,10.667,4.771,10.667,10.667l0.03,102.22l24.428-24.428
				c4.167-4.167,10.917-4.167,15.083,0C449.042,369.958,449.042,376.708,444.875,380.875z"/>
		</g>
	</g>
</g>
<g>
</g>
<g>
</g>
<g>
</g>
<g>
</g>
<g>
</g>
<g>
</g>
<g>
</g>
<g>
</g>
<g>
</g>
<g>
</g>
<g>
</g>
<g>
</g>
<g>
</g>
<g>
</g>
<g>
</g>
</svg>
