<?xml version="1.0" encoding="iso-8859-1"?>
<!-- Generator: Adobe Illustrator 19.0.0, SVG Export Plug-In . SVG Version: 6.00 Build 0)  -->
<svg version="1.1" id="Capa_1" xmlns="http://www.w3.org/2000/svg" xmlns:xlink="http://www.w3.org/1999/xlink" x="0px" y="0px"
	 viewBox="0 0 512 512" style="enable-background:new 0 0 512 512;" xml:space="preserve">
<g>
	<g>
		<path d="M512,150.904v-30h-62.972V62.972h-57.933V0h-30v62.972h-30.048V0h-30v62.972H271V0h-30v62.972h-30.048V0h-30v62.972
			h-30.048V0h-30v62.972H62.972v57.932H0v30h62.972v30.048H0v30h62.972V241H0v30h62.972v30.048H0v30h62.972v30.048H0v30h62.972
			v57.932h57.932V512h30v-62.972h30.048V512h30v-62.972H241V512h30v-62.972h30.048V512h30v-62.972h30.048V512h30v-62.972h57.933
			v-57.932H512v-30h-62.972v-30.048H512v-30h-62.972V271H512v-30h-62.972v-30.048H512v-30h-62.972v-30.048H512z M389.028,389.028
			H122.972V122.972h266.056V389.028z"/>
	</g>
</g>
<g>
	<g>
		<rect x="152.97" y="152.97" width="206.06" height="206.06"/>
	</g>
</g>
<g>
</g>
<g>
</g>
<g>
</g>
<g>
</g>
<g>
</g>
<g>
</g>
<g>
</g>
<g>
</g>
<g>
</g>
<g>
</g>
<g>
</g>
<g>
</g>
<g>
</g>
<g>
</g>
<g>
</g>
</svg>
