<?xml version="1.0" encoding="iso-8859-1"?>
<!-- Generator: Adobe Illustrator 19.0.0, SVG Export Plug-In . SVG Version: 6.00 Build 0)  -->
<svg version="1.1" id="Capa_1" xmlns="http://www.w3.org/2000/svg" xmlns:xlink="http://www.w3.org/1999/xlink" x="0px" y="0px"
	 viewBox="0 0 375.1 375.1" style="enable-background:new 0 0 375.1 375.1;" xml:space="preserve">
<g>
	<g>
		<path d="M375.1,206.25v-37.5h-56.3v-37.5H375v-37.4h-56.3v-37.3h-37.5V0.05h-37.5v56.4h-37.5V0.05h-37.5v56.4h-37.5V0.05H93.7
			v56.4H56.2v37.3H0v37.5h56.3v37.5H0v37.5h56.3v37.5H0v37.5h56.3v37.7h37.5v56.1h37.5v-56.1h37.5v56.1h37.5v-56.1h37.5v56.1h37.5
			v-56.1h37.5v-37.7h56.3v-37.5h-56.3v-37.5H375.1z M243.8,243.95H131.3v-112.6h112.5V243.95z"/>
	</g>
</g>
<g>
</g>
<g>
</g>
<g>
</g>
<g>
</g>
<g>
</g>
<g>
</g>
<g>
</g>
<g>
</g>
<g>
</g>
<g>
</g>
<g>
</g>
<g>
</g>
<g>
</g>
<g>
</g>
<g>
</g>
</svg>
