<svg id="Glyph" height="512" viewBox="0 0 32 32" width="512" xmlns="http://www.w3.org/2000/svg"><g fill="rgb(0,0,0)"><path d="m27 17.14h-22a3.00234 3.00234 0 0 0 -3 3v4.77a3.00879 3.00879 0 0 0 3 3h22a3.00879 3.00879 0 0 0 3-3v-4.77a3.00234 3.00234 0 0 0 -3-3zm-15.01 5.38a1 1 0 1 1 -1-1 1.00291 1.00291 0 0 1 1 1zm-5.19-1a1 1 0 1 1 -1 1 1.003 1.003 0 0 1 1-1zm19.4 2h-9.43a1 1 0 1 1 0-2h9.43a1 1 0 0 1 0 2z"/><path d="m20.48047 11.56348a1 1 0 0 0 .71-1.70508 7.32521 7.32521 0 0 0 -10.38086 0 1.00059 1.00059 0 1 0 1.41992 1.41015 5.32123 5.32123 0 0 1 7.541 0 1.00139 1.00139 0 0 0 .70994.29493z"/><path d="m9.67285 8.71484a8.94252 8.94252 0 0 1 12.6543 0 .99989.99989 0 1 0 1.416-1.41211 10.94178 10.94178 0 0 0 -15.48632 0 .99989.99989 0 1 0 1.416 1.41211z"/><path d="m13.39648 12.43066a.99992.99992 0 0 0 1.4043 1.42383 1.74454 1.74454 0 0 1 2.39844 0 .99992.99992 0 0 0 1.4043-1.42383 3.79033 3.79033 0 0 0 -5.20704 0z"/></g></svg>