<svg height="512" viewBox="0 0 24 24" width="512" xmlns="http://www.w3.org/2000/svg"><g id="Layer_2" data-name="Layer 2"><path d="m19 2.25h-.75v1.5a2 2 0 0 1 -2 2h-8.5a2 2 0 0 1 -2-2v-1.5h-.75a1.76 1.76 0 0 0 -1.75 1.75v17a1.76 1.76 0 0 0 1.75 1.75h14a1.76 1.76 0 0 0 1.75-1.75v-17a1.76 1.76 0 0 0 -1.75-1.75zm-3.45 10-3.75 4a.78.78 0 0 1 -.55.23.73.73 0 0 1 -.5-.19l-2.25-2a.73.73 0 0 1 -.06-1.05.76.76 0 0 1 1.06-.14l1.7 1.52 3.25-3.45a.75.75 0 0 1 1.06 0 .75.75 0 0 1 .04 1.03z"/><rect height="3.5" rx="1.25" width="10.5" x="6.75" y="1.25"/></g></svg>