<svg id="Capa_1" enable-background="new 0 0 512 512" height="512" viewBox="0 0 512 512" width="512" xmlns="http://www.w3.org/2000/svg"><g><path d="m375.951 249.415h29.999v29.999h-29.999z" transform="matrix(.707 -.707 .707 .707 -72.462 353.889)"/><path d="m243.61 260.11h30v30h-30z"/><path d="m243.61 381.84v30h30v-30zm119.92 0v30h30v-30zm0 0v30h30v-30zm-119.92 0v30h30v-30zm-93.61-224.86v334.86h320.61c22.86 0 41.39-18.53 41.39-41.39v-293.47zm153.61 269.86c0 8.29-6.7 15-15 15h-60c-8.28 0-15-6.71-15-15v-60c0-8.28 6.72-15 15-15h60c8.3 0 15 6.72 15 15zm0-121.73c0 8.28-6.7 15-15 15h-60c-8.28 0-15-6.72-15-15v-60c0-8.29 6.72-15 15-15h60c8.3 0 15 6.71 15 15zm119.92 121.73c0 8.29-6.71 15-15 15h-60c-8.27 0-15-6.71-15-15v-60c0-8.28 6.73-15 15-15h60c8.29 0 15 6.72 15 15zm20.46-151.82-42.43 42.43c-5.78 5.81-15.32 5.89-21.21 0l-42.42-42.43c-5.88-5.86-5.85-15.38 0-21.21l42.42-42.43c5.87-5.87 15.37-5.86 21.21 0l42.43 42.43c5.85 5.85 5.87 15.33 0 21.21zm-80.46 136.82h30v-30h-30zm-119.92 0h30v-30h-30zm0-30v30h30v-30zm0 0v30h30v-30z"/><path d="m0 156.98v293.47c0 22.86 18.53 41.39 41.39 41.39h78.61v-334.86zm60 235.26c-8.28 0-15-6.72-15-15 0-8.29 6.72-15 15-15s15 6.71 15 15c0 8.28-6.72 15-15 15zm0-60c-8.28 0-15-6.72-15-15 0-8.29 6.72-15 15-15s15 6.71 15 15c0 8.28-6.72 15-15 15zm0-60c-8.28 0-15-6.72-15-15 0-8.29 6.72-15 15-15s15 6.71 15 15c0 8.28-6.72 15-15 15z"/><path d="m470.61 20.16h-429.22c-22.82 0-41.39 18.57-41.39 41.39v65.43h512v-65.43c0-22.82-18.57-41.39-41.39-41.39zm-410.61 68.41c-8.28 0-15-6.72-15-15s6.72-15 15-15 15 6.72 15 15-6.72 15-15 15zm326.9 0c-8.28 0-15-6.72-15-15s6.72-15 15-15 15 6.72 15 15-6.72 15-15 15zm60 0c-8.28 0-15-6.72-15-15s6.72-15 15-15 15 6.72 15 15-6.72 15-15 15z"/></g></svg>