<svg id="Layer_1" enable-background="new 0 0 68 68" viewBox="0 0 68 68" xmlns="http://www.w3.org/2000/svg"><g><path d="m42.84768 5.08521v13.3914c0 1.25269-1.11319 2.26819-2.36588 2.26819h-35.36592c-1.25269 0-2.36588-1.0155-2.36588-2.26819l.09768-13.3914c0-1.25269 1.0155-2.26819 2.26819-2.26819h35.36593c1.2527 0 2.36588 1.0155 2.36588 2.26819z"/><path d="m5.11196 65.18298h11.38139c1.25269 0 2.26819-1.11319 2.26819-2.36588v-36.27422c0-1.25269-1.0155-2.36588-2.26819-2.36588l-11.38139.09769c-1.25269 0-2.26819 1.0155-2.26819 2.26819v36.27423c0 1.25268 1.0155 2.36587 2.26819 2.36587z"/><path d="m65.25 26.44349v36.47131c0 1.25269-1.0155 2.26819-2.26819 2.26819h-37.39395c-1.25269 0-2.26819-1.0155-2.26819-2.26819v-36.47131c0-1.25269 1.0155-2.26819 2.26819-2.26819h37.39395c1.25269 0 2.26819 1.0155 2.26819 2.26819z"/><path d="m65.25 11.78699c0 4.94-4.02002 8.96002-8.96997 8.96002-4.94006 0-8.96008-4.02002-8.96008-8.96002 0-4.95001 4.02002-8.96997 8.96008-8.96997 4.94995 0 8.96997 4.01996 8.96997 8.96997z"/></g></svg>