<svg id="Capa_1" enable-background="new 0 0 512 512" height="512" viewBox="0 0 512 512" width="512" xmlns="http://www.w3.org/2000/svg"><path d="m199.768 128.533h112.466c13.877 0 25.166-11.289 25.166-25.166v-55.164h-20.002c-6.75-27.634-31.719-48.203-61.398-48.203-29.682 0-54.65 20.569-61.401 48.203h-19.999v55.164c0 13.877 11.29 25.166 25.168 25.166z"/><path d="m392.566 48.203h-25.166v55.164c0 30.419-24.748 55.166-55.166 55.166h-112.466c-30.42 0-55.168-24.747-55.168-55.166v-55.164h-25.166c-30.419 0-55.166 24.746-55.166 55.164v353.466c0 30.419 24.747 55.167 55.166 55.167h273.132c30.418 0 55.166-24.748 55.166-55.167v-353.466c0-30.418-24.748-55.164-55.166-55.164zm-190.224 378.002-32.133 32.133c-2.928 2.929-6.768 4.394-10.605 4.394-3.839 0-7.676-1.464-10.606-4.392l-16.07-16.064c-5.858-5.856-5.86-15.354-.004-21.213 5.857-5.858 15.355-5.86 21.213-.004l5.465 5.462 21.527-21.528c5.857-5.857 15.355-5.857 21.213 0s5.858 15.355 0 21.212zm.001-96.4-32.133 32.134c-2.929 2.929-6.769 4.393-10.606 4.393-3.838 0-7.676-1.464-10.606-4.392l-16.07-16.063c-5.858-5.857-5.86-15.354-.004-21.213 5.857-5.858 15.354-5.861 21.213-.004l5.464 5.461 21.528-21.529c5.858-5.857 15.355-5.859 21.213 0 5.858 5.857 5.858 15.354.001 21.213zm0-96.397-32.133 32.134c-2.929 2.929-6.769 4.393-10.606 4.393-3.84 0-7.678-1.464-10.606-4.392l-16.07-16.067c-5.859-5.857-5.859-15.355-.002-21.213 5.857-5.859 15.354-5.859 21.213-.002l5.463 5.463 21.527-21.528c5.858-5.857 15.355-5.859 21.213 0 5.858 5.857 5.858 15.354.001 21.212zm166.124 229.323h-112.463c-8.285 0-15-6.716-15-15s6.715-15 15-15h112.462c8.283 0 15 6.716 15 15 .001 8.285-6.716 15-14.999 15zm0-96.399h-112.463c-8.285 0-15-6.716-15-15s6.715-15 15-15h112.462c8.283 0 15 6.716 15 15 .001 8.284-6.716 15-14.999 15zm0-96.397h-112.463c-8.285 0-15-6.716-15-15s6.715-15 15-15h112.462c8.283 0 15 6.716 15 15 .001 8.285-6.716 15-14.999 15z"/></svg>