<svg id="Layer_1" height="512" viewBox="0 0 64 64" width="512" xmlns="http://www.w3.org/2000/svg"><g><path d="m56.845 27h-10.69c-1.188 0-2.155.967-2.155 2.155v22.69c0 1.188.967 2.155 2.154 2.155h10.69c1.189 0 2.156-.967 2.156-2.155v-22.69c0-1.188-.967-2.155-2.155-2.155zm-3.845 24h-3c-.553 0-1-.448-1-1s.447-1 1-1h3c.553 0 1 .448 1 1s-.447 1-1 1z"/><path d="m54 25v-11.221c0-.995-.403-1.968-1.107-2.671-.714-.715-1.664-1.108-2.673-1.108h-41.441c-2.084 0-3.779 1.695-3.779 3.779v24.442c0 .995.403 1.969 1.106 2.671.705.705 1.678 1.108 2.673 1.108h33.221v-12.845c0-2.291 1.863-4.155 4.154-4.155zm-23 13.453h-3c-.552 0-1-.448-1-1s.448-1 1-1h3c.552 0 1 .448 1 1s-.448 1-1 1z"/><path d="m40 52h-4v-8h-13v8h-4c-.552 0-1 .448-1 1s.448 1 1 1h4 13 4c.553 0 1-.448 1-1s-.447-1-1-1z"/></g></svg>