<svg id="Layer_1" enable-background="new 0 0 32 32" height="512" viewBox="0 0 32 32" width="512" xmlns="http://www.w3.org/2000/svg"><path d="m24 3h-16c-2.757 0-5 2.243-5 5v16c0 2.757 2.243 5 5 5h16c2.757 0 5-2.243 5-5v-16c0-2.757-2.243-5-5-5zm-2.293 17.293c.391.391.391 1.023 0 1.414-.195.195-.451.293-.707.293s-.512-.098-.707-.293l-4.293-4.293-4.293 4.293c-.195.195-.451.293-.707.293s-.512-.098-.707-.293c-.391-.391-.391-1.023 0-1.414l4.293-4.293-4.293-4.293c-.391-.391-.391-1.023 0-1.414s1.023-.391 1.414 0l4.293 4.293 4.293-4.293c.391-.391 1.023-.391 1.414 0s.391 1.023 0 1.414l-4.293 4.293z"/></svg>