<svg height="512" viewBox="0 0 32 32" width="512" xmlns="http://www.w3.org/2000/svg"><g id="search_folder" data-name="search folder"><path d="m29.945 8.055a2.755 2.755 0 0 0 -1.945-.805h-14a1.249 1.249 0 0 1 -1-.5l-1.8-2.4a2.751 2.751 0 0 0 -2.2-1.1h-5a2.749 2.749 0 0 0 -2.75 2.75v20a2.749 2.749 0 0 0 2.75 2.75h24a2.748 2.748 0 0 0 2.75-2.75v-16a2.755 2.755 0 0 0 -.805-1.945zm-7.782 16.475a.75.75 0 0 1 -1.061 0l-2.802-2.806a5.415 5.415 0 1 1 1.061-1.06l2.806 2.806a.75.75 0 0 1 -.004 1.06z"/><circle cx="15.033" cy="17.4" r="3.917" transform="matrix(.707 -.707 .707 .707 -7.901 15.726)"/></g></svg>