<svg viewBox="0 0 512 512" xmlns="http://www.w3.org/2000/svg"><g id="Layer_16" data-name="Layer 16"><path d="m19 160.92a20.5 20.5 0 0 1 -2.07-.11 19 19 0 0 1 -16.82-20.93c1.22-11.24 2.69-22 4.51-32.94v-.19c8.79-49.54 52.76-93.5 102.32-102.26h.19c10.94-1.82 21.72-3.29 33-4.51a19 19 0 1 1 4.09 37.77c-10.47 1.14-20.52 2.51-30.71 4.2-16.37 2.88-32.73 11.85-46.13 25.25s-22.38 29.8-25.29 46.07c-1.69 10.18-3.09 20.22-4.2 30.73a19 19 0 0 1 -18.89 16.92z"/><path d="m493 161.11a19 19 0 0 1 -18.86-17c-1.14-10.48-2.51-20.53-4.2-30.7-2.94-16.27-11.94-32.63-25.32-46.03s-29.76-22.38-46.08-25.27c-10.19-1.7-20.23-3.07-30.71-4.2a19 19 0 1 1 4.09-37.77c11.23 1.21 22 2.69 32.95 4.51h.19c49.56 8.76 93.53 52.72 102.29 102.25v.19c1.81 10.93 3.29 21.7 4.51 32.94a19 19 0 0 1 -16.86 20.97 18 18 0 0 1 -2 .11z"/><path d="m369.85 512a19 19 0 0 1 -2-37.88c10.49-1.14 20.54-2.51 30.71-4.2 16.32-2.91 32.68-11.88 46.08-25.28s22.38-29.75 25.29-46.07c1.69-10.17 3.06-20.22 4.2-30.7a19 19 0 0 1 37.76 4.13c-1.22 11.24-2.7 22-4.51 32.94v.19c-8.75 49.54-52.72 93.5-102.28 102.25h-.19c-10.92 1.81-21.7 3.29-32.95 4.51-.74.11-1.43.11-2.11.11z"/><path d="m142.15 511.82a18.22 18.22 0 0 1 -2.07-.12c-11.23-1.21-22-2.69-33-4.51h-.19c-49.51-8.79-93.48-52.75-102.24-102.28v-.19c-1.85-10.93-3.32-21.72-4.54-32.94a19 19 0 0 1 37.78-4.09c1.14 10.48 2.51 20.52 4.2 30.7 2.91 16.31 11.91 32.67 25.29 46.07s29.76 22.37 46.08 25.27c10.19 1.7 20.24 3.07 30.71 4.2a19 19 0 0 1 -2 37.89z"/><path d="m454.3 240.73c-47.25-69.95-122-111.12-196.9-111.12h-2.85c-74.91 0-149.65 41.18-196.9 111.12a27.11 27.11 0 0 0 0 30.43c47.25 69.94 122 111.11 196.9 111.11h2.85c74.91 0 149.65-41.18 196.9-111.11a27.07 27.07 0 0 0 0-30.43zm-290 79.07a222.47 222.47 0 0 1 -70.94-63.86c19.17-26.53 43.57-48.52 70.94-63.86a195 195 0 0 1 46.34-18.73 94.2 94.2 0 0 0 0 165.19 195.48 195.48 0 0 1 -46.33-18.74zm77.18-103.64a37.93 37.93 0 0 0 -25.61 26.16 14 14 0 0 1 -27-7.39 66.09 66.09 0 0 1 44.66-45.6 14 14 0 1 1 8 26.83zm106.15 103.64a194.79 194.79 0 0 1 -46.33 18.73 94.2 94.2 0 0 0 0-165.18 195 195 0 0 1 46.34 18.73c27.37 15.34 51.77 37.33 70.94 63.86-19.17 26.53-43.58 48.52-70.95 63.86z"/></g></svg>