<svg id="Glyph" enable-background="new 0 0 32 32" height="512" viewBox="0 0 32 32" width="512" xmlns="http://www.w3.org/2000/svg"><path d="m5 3h3.5c.276 0 .5.224.5.5v1c0 .276-.224.5-.5.5h-3.5v3.5c0 .276-.224.5-.5.5h-1c-.276 0-.5-.224-.5-.5v-3.5c0-1.105.895-2 2-2z"/><path d="m28.5 9h-1c-.276 0-.5-.224-.5-.5v-3.5h-3.5c-.276 0-.5-.224-.5-.5v-1c0-.276.224-.5.5-.5h3.5c1.105 0 2 .895 2 2v3.5c0 .276-.224.5-.5.5z"/><path d="m3.5 23h1c.276 0 .5.224.5.5v3.5h3.5c.276 0 .5.224.5.5v1c0 .276-.224.5-.5.5h-3.5c-1.105 0-2-.895-2-2v-3.5c0-.276.224-.5.5-.5z"/><path d="m27 29h-3.5c-.276 0-.5-.224-.5-.5v-1c0-.276.224-.5.5-.5h3.5v-3.5c0-.276.224-.5.5-.5h1c.276 0 .5.224.5.5v3.5c0 1.105-.895 2-2 2z"/><path d="m16 7c-9.692 0-14 9-14 9s4.308 9 14 9 14-9 14-9-4.308-9-14-9zm0 15c-3.314 0-6-2.686-6-6s2.686-6 6-6 6 2.686 6 6-2.686 6-6 6z"/><path d="m19.809 14.841c.113.369.191.753.191 1.159 0 2.209-1.791 4-4 4s-4-1.791-4-4 1.791-4 4-4c.406 0 .79.078 1.159.191-.683.318-1.159 1.006-1.159 1.809 0 1.105.895 2 2 2 .803 0 1.491-.476 1.809-1.159z"/></svg>