<svg fill="none" height="128" viewBox="0 0 128 128" width="128" xmlns="http://www.w3.org/2000/svg"><path clip-rule="evenodd" d="m42 17c-13.8071 0-25 11.1929-25 25v11c0 1.6569 1.3431 3 3 3s3-1.3431 3-3v-11c0-10.4934 8.5066-19 19-19h11c1.6569 0 3-1.3431 3-3s-1.3431-3-3-3zm33 0c-1.6569 0-3 1.3431-3 3s1.3431 3 3 3h11c10.4934 0 19 8.5066 19 19v11c0 1.6569 1.343 3 3 3s3-1.3431 3-3v-11c0-13.8071-11.1929-25-25-25zm-52 58c0-1.6569-1.3431-3-3-3s-3 1.3431-3 3v11c0 13.8071 11.1929 25 25 25h11c1.6569 0 3-1.343 3-3s-1.3431-3-3-3h-11c-10.4934 0-19-8.5066-19-19zm88 0c0-1.6569-1.343-3-3-3s-3 1.3431-3 3v11c0 10.4934-8.5066 19-19 19h-11c-1.6569 0-3 1.343-3 3s1.3431 3 3 3h11c13.8071 0 25-11.1929 25-25zm-50-29.4141v8.4516c0 1.5797.7465 3.0664 2.0134 4.01l7.1946 5.3585c1.3288.9897 3.2083.7148 4.198-.614s.7148-3.2083-.614-4.198l-6.792-5.0586v-7.9495c-.9537.2698-1.96.4141-3 .4141s-2.0463-.1443-3-.4141zm18-3.5859c1.6569 0 3 1.3431 3 3v7c0 1.6569-1.3431 3-3 3s-3-1.3431-3-3v-7c0-1.6569 1.3431-3 3-3zm5.5684 29.065-2.5684 1.2843v10.651c0 1.6568-1.3431 3-3 3s-3-1.3432-3-3v-11.2691c0-1.8938 1.07-3.6251 2.7639-4.4721l3.3494-1.6747c.2984 2.069 1.1727 3.9518 2.4551 5.4806zm-17.5684 11.3491v-8.4516c0-1.5797-.7465-3.0664-2.0134-4.01l-7.1946-5.3585c-1.3288-.9897-3.2083-.7148-4.198.614s-.7148 3.2083.614 4.198l6.792 5.0586v7.9495c.9537-.2698 1.96-.4141 3-.4141s2.0463.1443 3 .4141zm-21 .5859c0 1.6569 1.3431 3 3 3s3-1.3431 3-3v-7c0-1.6569-1.3431-3-3-3s-3 1.3431-3 3zm-2.849-26.3867c1.3468 1.4853 2.2933 3.3403 2.6691 5.3946l3.0369-1.2147c1.8983-.7594 3.143-2.5979 3.143-4.6424v-11.151c0-1.6569-1.3431-3-3-3s-3 1.3431-3 3v10.4739zm20.849-14.6133c3.866 0 7-3.134 7-7s-3.134-7-7-7-7 3.134-7 7 3.134 7 7 7zm29 29c3.866 0 7-3.134 7-7s-3.134-7-7-7-7 3.134-7 7 3.134 7 7 7zm-36 22c0-3.866 3.134-7 7-7s7 3.134 7 7-3.134 7-7 7-7-3.134-7-7zm-22-36c-3.866 0-7 3.134-7 7s3.134 7 7 7 7-3.134 7-7-3.134-7-7-7z" fill="rgb(0,0,0)" fill-rule="evenodd"/></svg>