<svg id="Capa_1" enable-background="new 0 0 512 512" height="512" viewBox="0 0 512 512" width="512" xmlns="http://www.w3.org/2000/svg"><g><path d="m231.024 233.363-14.538 38.172h28.943z"/><path d="m141 371h230v-230h-230zm172.5-175c0-8.284 6.716-15 15-15s15 6.716 15 15v120c0 8.284-6.716 15-15 15s-15-6.716-15-15zm-144.018 114.661 45.06-118.31c.043-.114.088-.228.134-.341 2.733-6.681 9.164-11.003 16.383-11.01h.018c7.212 0 13.643 4.307 16.387 10.978.056.136.11.273.162.411l44.65 118.315c2.925 7.751-.987 16.405-8.737 19.33-1.744.658-3.534.97-5.294.97-6.062 0-11.77-3.701-14.036-9.708l-7.458-19.762h-51.691l-7.543 19.804c-2.949 7.742-11.615 11.628-19.356 8.679-7.742-2.948-11.627-11.614-8.679-19.356z"/><path d="m431 66h-350c-8.284 0-15 6.716-15 15v350c0 8.284 6.716 15 15 15h350c8.284 0 15-6.716 15-15v-350c0-8.284-6.716-15-15-15zm-30 320c0 8.284-6.716 15-15 15h-260c-8.284 0-15-6.716-15-15v-260c0-8.284 6.716-15 15-15h260c8.284 0 15 6.716 15 15z"/><path d="m421 15c0-8.284-6.716-15-15-15s-15 6.716-15 15v21h30z"/><path d="m361 15c0-8.284-6.716-15-15-15s-15 6.716-15 15v21h30z"/><path d="m301 15c0-8.284-6.716-15-15-15s-15 6.716-15 15v21h30z"/><path d="m241 15c0-8.284-6.716-15-15-15s-15 6.716-15 15v21h30z"/><path d="m181 15c0-8.284-6.716-15-15-15s-15 6.716-15 15v21h30z"/><path d="m121 15c0-8.284-6.716-15-15-15s-15 6.716-15 15v21h30z"/><path d="m391 497c0 8.284 6.716 15 15 15s15-6.716 15-15v-21h-30z"/><path d="m331 497c0 8.284 6.716 15 15 15s15-6.716 15-15v-21h-30z"/><path d="m271 497c0 8.284 6.716 15 15 15s15-6.716 15-15v-21h-30z"/><path d="m211 497c0 8.284 6.716 15 15 15s15-6.716 15-15v-21h-30z"/><path d="m151 497c0 8.284 6.716 15 15 15s15-6.716 15-15v-21h-30z"/><path d="m91 497c0 8.284 6.716 15 15 15s15-6.716 15-15v-21h-30z"/><path d="m0 106c0 8.284 6.716 15 15 15h21v-30h-21c-8.284 0-15 6.716-15 15z"/><path d="m0 166c0 8.284 6.716 15 15 15h21v-30h-21c-8.284 0-15 6.716-15 15z"/><path d="m0 226c0 8.284 6.716 15 15 15h21v-30h-21c-8.284 0-15 6.716-15 15z"/><path d="m0 286c0 8.284 6.716 15 15 15h21v-30h-21c-8.284 0-15 6.716-15 15z"/><path d="m0 346c0 8.284 6.716 15 15 15h21v-30h-21c-8.284 0-15 6.716-15 15z"/><path d="m0 406c0 8.284 6.716 15 15 15h21v-30h-21c-8.284 0-15 6.716-15 15z"/><path d="m512 106c0-8.284-6.716-15-15-15h-21v30h21c8.284 0 15-6.716 15-15z"/><path d="m497 151h-21v30h21c8.284 0 15-6.716 15-15s-6.716-15-15-15z"/><path d="m497 211h-21v30h21c8.284 0 15-6.716 15-15s-6.716-15-15-15z"/><path d="m497 271h-21v30h21c8.284 0 15-6.716 15-15s-6.716-15-15-15z"/><path d="m497 331h-21v30h21c8.284 0 15-6.716 15-15s-6.716-15-15-15z"/><path d="m497 391h-21v30h21c8.284 0 15-6.716 15-15s-6.716-15-15-15z"/></g></svg>