<svg id="Layer_1" enable-background="new 0 0 25 25" height="512" viewBox="0 0 25 25" width="512" xmlns="http://www.w3.org/2000/svg"><g><path d="m2.4 24.4h6.7c1.1 0 1.9-.9 1.9-1.9v-4.8c0-1.1-.9-1.9-1.9-1.9h-2.6v-1.8c0-.1.1-.2.2-.2h11.5c.1 0 .2.1.2.2v1.8h-2.6c-1.1 0-1.9.9-1.9 1.9v4.8c0 1.1.9 1.9 1.9 1.9h6.7c1.1 0 1.9-.9 1.9-1.9v-4.8c0-1.1-.9-1.9-1.9-1.9h-2.1v-1.8c0-1.2-1-2.2-2.2-2.2h-4.8v-2.6h2.3c1.1 0 1.9-.9 1.9-1.9v-4.7c0-1.1-.9-1.9-1.9-1.9h-6.6c-1.1 0-1.9.9-1.9 1.9v4.8c0 1.1.9 1.9 1.9 1.9h2.4v2.6h-4.8c-1.2 0-2.2 1-2.2 2.2v1.8h-2.1c-1.1 0-1.9.9-1.9 1.9v4.8c0 .9.9 1.8 1.9 1.8z"/></g></svg>