<svg clip-rule="evenodd" fill-rule="evenodd" stroke-linejoin="round" stroke-miterlimit="2" viewBox="0 0 32 32" xmlns="http://www.w3.org/2000/svg"><g id="Solid-Black"><path d="m5 4v23c0 .796.316 1.559.879 2.121.562.563 1.325.879 2.121.879h16c.796 0 1.559-.316 2.121-.879.563-.562.879-1.325.879-2.121 0-4.354 0-14.646 0-19 0-.796-.316-1.559-.879-2.121-.319-.32-.703-.56-1.121-.707v-1.172c0-.796-.316-1.559-.879-2.121-.562-.563-1.325-.879-2.121-.879-3.463 0-10.537 0-14 0-.796 0-1.559.316-2.121.879-.563.562-.879 1.325-.879 2.121zm8.829 14.757-4.536 4.536c-.39.39-.39 1.024 0 1.414s1.024.39 1.414 0l4.536-4.536c.791.524 1.738.829 2.757.829 2.76 0 5-2.24 5-5s-2.24-5-5-5-5 2.24-5 5c0 1.019.305 1.966.829 2.757zm4.171-5.757c1.656 0 3 1.344 3 3s-1.344 3-3 3-3-1.344-3-3 1.344-3 3-3zm-11-9c0-.265.105-.52.293-.707.187-.188.442-.293.707-.293h14c.265 0 .52.105.707.293.188.187.293.442.293.707v1h-15c-.265 0-.52-.105-.707-.293-.188-.187-.293-.442-.293-.707z"/></g></svg>