<svg id="Glyph" enable-background="new 0 0 48 48" viewBox="0 0 48 48" xmlns="http://www.w3.org/2000/svg"><g><path d="m25.2486 32.74993c0-3.26666 2.4425-6.13416 5.66541-6.65961.95081-.15503 1.90277-.09332 2.83459.13959v-6.79999c0-1.52002-1.22998-2.75-2.75-2.75h-19c-1.51996 0-2.75 1.22998-2.75 2.75v12c0 1.52002 1.23004 2.75 2.75 2.75h13.40002c-.04999-.22003-.08002-.44-.10999-.66998-.03002-.23004-.04003-.49005-.04003-.76001zm-7.71997-9.19c-.29004-.29004-.77002-.29004-1.06 0l-5.72003 5.71997v-9.84998c0-.69.56-1.25 1.25-1.25h19c.69 0 1.25.56 1.25 1.25v6.19l-5.39001-5.39001c-.28998-.28998-.76996-.28998-1.06 0l-5.79999 5.79999z"/><path d="m38.2486 14.4699c-.41998-.59998-1.04999-1-1.76996-1.13 0 0-18.69379-3.29712-18.71002-3.29999-1.46851-.25903-2.92731.77502-3.19 2.22998l-.51001 2.91003h16.92999c2.34003 0 4.25 1.90997 4.25 4.25v7.40997c.5177.28473 1.05048.65045 1.45001 1.09003l2.01001-11.41003c.13001-.71997-.03998-1.44995-.46002-2.04999z"/><circle cx="19.999" cy="21.09" r=".75"/><path d="m35.3946 28.75481c-.92767-.784-2.1792-1.25488-3.396-1.25488-2.89502 0-5.25 2.35541-5.25 5.24994 0 2.86261 2.38904 5.25006 5.25 5.25006 2.89502 0 5.25-2.35547 5.25-5.25 0-1.54297-.66846-2.99316-1.854-3.99512zm-.86573 4.02088c-.29297.29297-.76758.29297-1.06055 0l-.71973-.71973v3.18945c0 .41406-.33594.75-.75.75s-.75-.33594-.75-.75v-3.18945l-.71973.71973c-.29297.29297-.76758.29297-1.06055 0s-.29297-.76758 0-1.06055c0 0 1.99854-1.99854 2-2 .28717-.28717.77374-.2868 1.06055 0l2 2c.29298.29297.29298.76758.00001 1.06055z"/></g></svg>