<svg id="svg14078" height="512" viewBox="0 0 16.933333 16.933334" width="512" xmlns="http://www.w3.org/2000/svg" xmlns:svg="http://www.w3.org/2000/svg"><g id="layer1" transform="translate(0 -280.067)"><path id="path32653" d="m3.9687502 280.5958c-.4351576 0-.7953005.35756-.7953005.79272v11.90625h10.5843683v-10.05468h-1.851567c-.435163 0-.795301-.35756-.795301-.79272v-1.85157zm7.6713668.154v1.69757c0 .15114.114974.26355.266134.26355h1.694987zm-3.1770669 1.96422a.26460982.26460982 0 0 1 .1917197.078l1.8515652 1.85002a.26460982.26460982 0 0 1 -.187584.45113h-1.05885v3.17552a.26460982.26460982 0 0 1 -.2635515.26355h-1.0583333a.26460982.26460982 0 0 1 -.2661338-.26355v-3.17552h-1.0562643a.26460982.26460982 0 0 1 -.1875869-.45113l1.8515674-1.85002a.26460982.26460982 0 0 1 .1834515-.078zm-6.3479338 1.05523c-.5817418 0-1.0588498.47711-1.0588498 1.05885v8.46719h1.0588498v-8.20364c.0005292-.14612.1194991-.26409.2656179-.26355h.2635488v-1.05885zm12.1718677 0v1.05885h.263548c.146119-.00053.265034.11743.265618.26355v8.20364h1.05885v-8.46719c0-.58174-.477116-1.05885-1.05885-1.05885zm-8.7302178 5.82187h5.8203178a.26460982.26460982 0 0 1 .263549.26562v1.05885a.26460982.26460982 0 0 1 -.263549.26355h-5.8203178a.26460982.26460982 0 0 1 -.2656152-.26355v-1.05885a.26460982.26460982 0 0 1 .2656152-.26562zm-4.7640496 4.23333a.26460982.26460982 0 0 0 -.2635499.26355v1.05834c0 .72832.5940888 1.32446 1.3224008 1.32446h13.2281315c.728319 0 1.324467-.59614 1.324467-1.32446v-1.05834a.26460982.26460982 0 0 0 -.265618-.26355h-4.76198v.79272c0 .43517-.359624.79478-.794785.79478h-4.2322987c-.4351629 0-.7953005-.35962-.7953005-.79478v-.79272zm5.2911498 0v.79272c0 .15116.1144588.26562.2656179.26562h4.2322987c.151152 0 .265618-.11446.265618-.26562v-.79272z" font-variant-ligatures="normal" font-variant-position="normal" font-variant-caps="normal" font-variant-numeric="normal" font-variant-alternates="normal" font-feature-settings="normal" text-indent="0" text-align="start" text-decoration-line="none" text-decoration-style="solid" text-decoration-color="rgb(0,0,0)" text-transform="none" text-orientation="mixed" white-space="normal" shape-padding="0" isolation="auto" mix-blend-mode="normal" solid-color="rgb(0,0,0)" solid-opacity="1" vector-effect="none"/></g></svg>