<?xml version="1.0" encoding="iso-8859-1"?>
<!-- Generator: Adobe Illustrator 21.0.0, SVG Export Plug-In . SVG Version: 6.00 Build 0)  -->
<svg version="1.1" id="Capa_1" xmlns="http://www.w3.org/2000/svg" xmlns:xlink="http://www.w3.org/1999/xlink" x="0px" y="0px"
	 viewBox="0 0 512 512" style="enable-background:new 0 0 512 512;" xml:space="preserve">
<g>
	<g>
		<path d="M497,233.845c8.284,0,15-6.716,15-15s-6.716-15-15-15h-41.166v-44.309H497c8.284,0,15-6.716,15-15s-6.716-15-15-15
			h-41.166v-58.37c0-8.284-6.716-15-15-15h-58.37V15c0-8.284-6.716-15-15-15s-15,6.716-15,15v41.166h-44.309V15
			c0-8.284-6.716-15-15-15s-15,6.716-15,15v41.166h-44.31V15c0-8.284-6.716-15-15-15s-15,6.716-15,15v41.166h-44.309V15
			c0-8.284-6.716-15-15-15s-15,6.716-15,15v41.166h-58.37c-8.284,0-15,6.716-15,15v58.37H15c-8.284,0-15,6.716-15,15s6.716,15,15,15
			h41.166v44.309H15c-8.284,0-15,6.716-15,15s6.716,15,15,15h41.166v44.31H15c-8.284,0-15,6.716-15,15s6.716,15,15,15h41.166v44.309
			H15c-8.284,0-15,6.716-15,15s6.716,15,15,15h41.166v58.37c0,8.284,6.716,15,15,15h58.37V497c0,8.284,6.716,15,15,15
			s15-6.716,15-15v-41.166h44.309V497c0,8.284,6.716,15,15,15s15-6.716,15-15v-41.166h44.31V497c0,8.284,6.716,15,15,15
			s15-6.716,15-15v-41.166h44.309V497c0,8.284,6.716,15,15,15s15-6.716,15-15v-41.166h58.37c8.284,0,15-6.716,15-15v-58.37H497
			c8.284,0,15-6.716,15-15s-6.716-15-15-15h-41.166v-44.309H497c8.284,0,15-6.716,15-15s-6.716-15-15-15h-41.166v-44.31H497z
			 M357.408,372.408H154.592c-8.284,0-15-6.716-15-15V154.592c0-8.284,6.716-15,15-15h202.815c8.284,0,15,6.716,15,15v202.816h0.001
			C372.408,365.692,365.692,372.408,357.408,372.408z"/>
	</g>
</g>
<g>
	<g>
		<rect x="169.59" y="169.59" width="172.81" height="172.81"/>
	</g>
</g>
<g>
</g>
<g>
</g>
<g>
</g>
<g>
</g>
<g>
</g>
<g>
</g>
<g>
</g>
<g>
</g>
<g>
</g>
<g>
</g>
<g>
</g>
<g>
</g>
<g>
</g>
<g>
</g>
<g>
</g>
</svg>
