<svg version="1.0" xmlns="http://www.w3.org/2000/svg" viewBox="9.98 10.08 492.05 491.92"><path d="M52.6 11.2C32.5 15 14.8 33 11.1 53.4c-1.5 8.4-1.5 396.8 0 405.2 3.8 20.7 21.7 38.6 42.3 42.3 4.1.8 66.7 1.1 203 1.1 165.3 0 198.2-.3 203.7-1.4 20.1-4.3 37.2-21.9 40.8-42 1.5-8.4 1.5-396.9 0-405.2-3.7-20.3-20.6-37.7-40.8-42-5.5-1.1-38.2-1.4-204.6-1.3-119.3.1-200 .5-202.9 1.1m266.7 40.7c3.9 1.5 4.9 5.7 4.5 18.6-.4 15.6-.3 15.5-17.9 15.5-17.4 0-16.9.5-16.9-17.4 0-13.3 0-13.5 2.6-15.5 2.3-1.8 4.1-2.1 14-2.1 6.2 0 12.4.4 13.7.9m64.2 1.6c2.4 2.3 2.5 3 2.5 15.1 0 17.6.2 17.4-17.2 17.4-12.4 0-13-.1-15.3-2.5-2.4-2.3-2.5-3-2.5-15s.1-12.7 2.5-15c2.3-2.4 3-2.5 15-2.5s12.7.1 15 2.5m59.8-1.4c1.2.7 2.5 1.7 2.9 2.3s.8 7.3.8 14.8c0 17.4.6 16.8-17.2 16.8-17.2 0-16.8.5-16.8-17.4 0-13.3 0-13.5 2.6-15.5 2.4-1.8 4.1-2.1 14.1-2.1 6.7 0 12.3.5 13.6 1.1m15.6 69.4c6.8 3.8 12.5 10.2 15.1 17.2 2 5.5 2 6.3 1.8 156.6l-.3 151.2-2.3 5.6c-3 7.6-9 14.2-16 17.6l-5.7 2.8h-392l-5.7-2.8c-7-3.5-13.1-10.1-15.8-17.4-2-5.4-2-6.4-1.8-158.6l.3-153.2 2.3-4.3c4.5-8.5 11.8-14.7 20.2-17.3 1.4-.4 90.7-.7 198.5-.6l196 .2z"></path><path d="M91 232v62h329V170H91zm177.3-39.3c21.1 6.6 27.7 48.1 11.1 69.9-1.3 1.7-4.8 4.4-7.6 6-4.9 2.7-6.1 2.9-15.8 2.9s-10.9-.2-15.8-2.9c-9.7-5.4-14.9-15.3-16.7-32.1-1.4-12.7 2.9-29 9.9-37.2 6.8-8 21.5-10.8 34.9-6.6m-68.3-.8c0 .5-5.6 10.4-12.5 21.9-6.9 11.6-12.5 21.6-12.5 22.1 0 .6 2.2 1.1 5 1.1h5v-14h18v14h9v15h-9v18h-18v-18h-31v-14.1l12.7-21.7c6.9-11.9 13.3-22.5 14.1-23.5 1.2-1.4 3.2-1.7 10.4-1.7 4.8 0 8.8.4 8.8.9m146-.5c0 .2-5.6 9.9-12.5 21.5s-12.8 21.8-13.2 22.6c-.5 1.4.3 1.6 4.8 1.3l5.4-.3.3-6.8.3-6.7h16.8l.3 6.7.3 6.8 4.3.3 4.2.3V252h-9v18h-17v-18h-32v-13.4l13.2-22.5c7.2-12.4 13.6-23.2 14.1-23.9.6-.8 4-1.2 10.3-1.2 5.2 0 9.4.2 9.4.4"></path><path d="M248.2 207.5c-4.8 4-7.5 14.4-7 26.9.3 8.4.8 10.9 3 15.2 1.5 2.7 3.4 5.6 4.3 6.4 2.2 1.9 10.5 2.4 13.5.8 5.8-3.1 9.5-15.3 8.8-29.5-.7-14.7-5.9-22.3-15.5-22.3-3 0-5 .7-7.1 2.5M91 340.5V357h150v-33H91zm180 0V357h150v-33H271zM91 405v17h150v-34H91zm180 0v17h150v-34H271z"></path></svg>