<?xml version="1.0" encoding="utf-8"?>
<!-- Generator: Adobe Illustrator 22.0.1, SVG Export Plug-In . SVG Version: 6.00 Build 0)  -->
<svg version="1.1" id="Ebene_1" xmlns="http://www.w3.org/2000/svg" xmlns:xlink="http://www.w3.org/1999/xlink" x="0px" y="0px"
	 viewBox="0 0 832.1 785.4" style="enable-background:new 0 0 832.1 785.4;" xml:space="preserve">
<style type="text/css">
	.st0{fill:#FFFFFF;}
</style>
<g>
	<path class="st0" d="M135.1,785.4c-9.4-6.3-11.6-15.2-11.5-26.1c0.3-117.1,0.2-234.3,0.1-351.4c0-6.4,1.7-10.9,6.6-15.2
		c93.2-82.2,186.2-164.6,279.3-247c1.9-1.7,4-3.3,6.4-5.3c2.2,1.6,4.3,3,6.2,4.7c93.6,82.8,187.2,165.5,280.5,248.6
		c3.1,2.8,5.6,8.2,5.6,12.3c0.3,119.1,0.2,238.2,0.4,357.3c0,9.8-3.7,16.8-11.5,22.2c-62.7,0-125.3,0-188,0
		c-0.2-3.9-0.6-7.8-0.6-11.7c0-48.2,0-96.4,0-144.7c0-16.8-6.2-23.1-22.9-23.1c-46.3-0.1-92.5-0.1-138.8,0
		c-16.8,0-22.9,6.2-22.9,23.1c-0.1,46.3,0,92.5,0,138.8c0,5.8-0.4,11.7-0.6,17.5C260.4,785.4,197.7,785.4,135.1,785.4z"/>
	<path class="st0" d="M832.1,366.4c-14.5,15.8-29,31.5-43.9,47.7C664.1,304.2,540.3,194.6,416.1,84.6
		C291.8,194.7,168.1,304.3,43.6,414.4c-14.7-16.6-29-32.6-43.6-49.2c19.9-17.7,39.4-35,58.9-52.3C174.9,210.3,291,107.6,406.8,4.7
		c7.2-6.4,11.5-6.3,18.6,0.1c133.6,118.7,267.5,237.1,401.3,355.5c1.7,1.5,3.6,2.7,5.4,4.1C832.1,365.1,832.1,365.7,832.1,366.4z"/>
	<path class="st0" d="M124.5,51.5c34.9,0,69,0,103.5,0c0,20.1,0.1,39.8-0.2,59.6c0,1.9-1.9,4.1-3.5,5.5
		c-32.3,29.3-64.8,58.5-97.2,87.7c-0.4,0.4-1.2,0.5-2.6,1C124.5,154.1,124.5,103.3,124.5,51.5z"/>
</g>
</svg>
