<?xml version="1.0" encoding="utf-8"?>
<!-- Generator: Adobe Illustrator 22.0.1, SVG Export Plug-In . SVG Version: 6.00 Build 0)  -->
<svg version="1.1" id="Ebene_1" xmlns="http://www.w3.org/2000/svg" xmlns:xlink="http://www.w3.org/1999/xlink" x="0px" y="0px"
	 viewBox="0 0 614.2 294.2" style="enable-background:new 0 0 614.2 294.2;" xml:space="preserve">
<style type="text/css">
	.st0{fill:#FFFFFF;}
</style>
<g>
	<path class="st0" d="M0,106c17.7,1.1,30.3,11.8,42.6,23c10.3,9.4,20.4,18.9,30.9,28c6.4,5.5,13.8,9.4,22.5,10.1
		c7.4,0.6,13.8-1.9,19.6-6.3c7.2-5.3,12.5-12.4,17.4-19.7c6.7-9.8,11.9-20.4,16.8-31.1c4.2-9.1,8.4-18.1,12.7-27.1
		c5.2-10.8,10.2-21.7,15.8-32.3c7.3-14.1,15.2-27.8,26.4-39.3c5.4-5.5,11.5-10.1,19.5-11.2c6.2-0.9,11.5,1.2,16.7,4.3
		c7,4.4,12.4,10.5,16.9,17.1c6.3,9.3,12.2,18.9,17.6,28.8c5.6,10.2,10.5,20.7,15.4,31.2c5.5,11.7,10.7,23.5,16.1,35.2
		c5.6,12,11,24.1,17,36c7.2,14.3,14.8,28.5,24.8,41.2c4.7,5.9,9.8,11.2,16.3,15c8.8,5.1,17.6,4.9,26.3-0.3
		c9.3-5.6,16-13.8,21.5-22.6c7.6-12.3,14.5-25.3,21.4-38.1c3.1-5.7,5.4-11.8,8.1-17.7c3.4-7.2,6.9-14.3,10.3-21.5
		c2.2-4.6,3.9-9.5,6.2-14.1c5-9.8,9.7-19.9,15.6-29.2c4.1-6.5,9.4-12.5,15-17.8c10.2-9.7,22.4-11,34.2-3.6c7,4.4,13.5,9.8,19.5,15.5
		c9.7,9.1,18.8,18.9,28.4,28.2c7.5,7.2,15.7,13.8,25.9,16.9c5.2,1.5,10.7,1.9,16.7,2.9c0,0.2,0,1.2,0,2.2c0,24.9,0,49.7,0,74.5
		c0,3.9,0,3.9-3.9,4c-8.9,0.2-16.9-3-24.3-7.7c-10.8-6.9-19.5-16.2-28.4-25.2c-9.3-9.4-18.1-19.5-29.2-26.9
		c-3.2-2.2-6.8-4.2-10.5-5.6c-10.1-3.9-19.3-1.6-27.6,5c-7.9,6.3-13.4,14.3-18.6,22.8c-6.1,10-11.3,20.5-15.7,31.4
		c-2.9,7.2-6.5,14.1-9.8,21.2c-2.6,5.6-4.9,11.4-7.7,17c-7.7,15.1-14.8,30.4-24.2,44.6c-5.5,8.3-11.4,16.2-19.2,22.6
		c-10.9,8.9-22.9,9.3-33.9,0.2c-4.7-3.9-8.9-8.6-12.9-13.4c-7.6-9.3-13.4-19.8-18.8-30.4c-5.2-10.2-10.3-20.5-15.2-30.8
		c-5.6-12-10.9-24.2-16.5-36.2c-5.5-11.7-10.9-23.5-16.6-35.1c-6.9-14.1-14.3-27.9-24-40.3c-4.8-6.2-10.1-11.9-17-16
		c-10.4-6.3-20.2-4.7-29.6,2.1c-5.5,3.9-9.7,9-13.9,14.3c-7,8.9-12.7,18.5-17.7,28.7c-5.4,11-11,22-16.4,33
		c-3.5,7.2-6.8,14.4-10.1,21.7c-2.2,4.6-4,9.4-6.4,13.9c-8.1,15.2-15.8,30.8-29.4,42.1c-9.3,7.7-19.7,9.8-31.1,4.6
		c-10-4.6-17.9-11.9-25.9-19.2c-9.5-8.7-18.8-17.6-28.6-26c-7.4-6.3-15.9-10.9-25.8-12.3c-1.6-0.2-3.4-0.2-5.1-0.2
		C0,160.6,0,133.3,0,106z"/>
</g>
</svg>
