<?xml version="1.0" encoding="utf-8"?>
<!-- Generator: Adobe Illustrator 22.0.1, SVG Export Plug-In . SVG Version: 6.00 Build 0)  -->
<svg version="1.1" id="Ebene_1" xmlns="http://www.w3.org/2000/svg" xmlns:xlink="http://www.w3.org/1999/xlink" x="0px" y="0px"
	 viewBox="0 0 225 190" style="enable-background:new 0 0 225 190;" xml:space="preserve">
<g>
	<path d="M225,145.5c-2.5,6-7.1,8.1-13.5,8c-35-0.2-70,0-105-0.1c-3.1,0-5.2,0.8-7.3,3.2c-8.2,9.6-16.6,19.1-25,28.6
		c-5.7,6.4-10.6,6.4-16.2-0.1c-8.4-9.7-16.7-19.5-25.2-29.1c-1.2-1.4-3.5-2.3-5.4-2.5c-4.6-0.4-9.3-0.3-14-0.1c-6.4,0.3-11-2-13.5-8
		c0-46,0-92,0-138C2.6,1.8,7.1,0,13.2,0c66.2,0.1,132.4,0.1,198.6,0c6.2,0,10.6,1.9,13.2,7.5C225,53.5,225,99.5,225,145.5z
		 M10.3,143.4c6.9,0,13.4,0.3,19.9-0.1c4.3-0.3,7,1.3,9.7,4.5c8.5,10.6,17.3,21,26.3,31.8c10.1-11.2,20-21.9,29.8-32.8
		c2.3-2.6,4.7-3.5,8.2-3.5c34.8,0.1,69.6,0.1,104.5,0.1c1.9,0,3.9,0,6,0c0-44.7,0-88.7,0-132.9c-68.2,0-136.1,0-204.2,0
		C10.3,54.8,10.3,98.7,10.3,143.4z"/>
	<path d="M107,81.6c-20.3,0-40.6-0.1-60.9,0.1c-3.8,0-5.3-0.9-5.3-5c0.1-3.9,1.3-5.2,5.2-5.2c41,0.1,81.9,0.1,122.9,0
		c4.2,0,5,1.8,5,5.4c0.1,3.8-1.4,4.8-5,4.8C148.3,81.5,127.7,81.6,107,81.6z"/>
	<path d="M107.6,51c-20.3,0-40.6,0-60.9,0c-3.6,0-5.9-0.2-5.9-5c0-4.6,2.1-5.1,5.8-5.1c40.6,0.1,81.2,0.1,121.8,0
		c3.9,0,5.7,0.9,5.7,5.3c0,4.4-2.1,4.8-5.6,4.8C148.2,50.9,127.9,51,107.6,51z"/>
	<path d="M87.1,102.4c13.7,0,27.3,0.1,41-0.1c3.7,0,5,1.1,5,4.9c0,3.8-1,5.4-5.1,5.4c-27.3-0.1-54.7-0.1-82,0c-4,0-5.1-1.3-5.2-5.2
		c-0.1-4.2,1.5-5,5.3-5C59.8,102.5,73.5,102.4,87.1,102.4z"/>
</g>
</svg>
