<?xml version="1.0" encoding="utf-8"?>
<!-- Generator: Adobe Illustrator 22.0.1, SVG Export Plug-In . SVG Version: 6.00 Build 0)  -->
<svg version="1.1" id="Ebene_1" xmlns="http://www.w3.org/2000/svg" xmlns:xlink="http://www.w3.org/1999/xlink" x="0px" y="0px"
	 viewBox="0 0 58 93.7" style="enable-background:new 0 0 58 93.7;" xml:space="preserve">
<style type="text/css">
	.st0{fill:#010202;}
</style>
<g>
	<path class="st0" d="M58,85.1c-1.4,1.1-3.4,2.5-5.2,4.3c-5.8,5.7-5.8,5.7-11.4,0C28.2,76.3,15,63,1.7,49.9c-2.4-2.3-2.3-3.6,0-5.9
		C16,30.1,30.2,15.9,44.2,1.7c2.4-2.5,3.7-2,5.9,0.2c8.4,8.4,8.5,8.4,0.1,16.7C41.5,27.2,33,35.8,24.3,44.3c-2.3,2.2-2.1,3.4,0,5.5
		c10.5,10.2,20.8,20.7,31.1,31C56.3,81.7,57.6,82.4,58,85.1z"/>
</g>
</svg>
