<?xml version="1.0" encoding="utf-8"?>
<!-- Generator: Adobe Illustrator 22.0.1, SVG Export Plug-In . SVG Version: 6.00 Build 0)  -->
<svg version="1.1" id="Ebene_1" xmlns="http://www.w3.org/2000/svg" xmlns:xlink="http://www.w3.org/1999/xlink" x="0px" y="0px"
	 viewBox="0 0 832.1 785.4" style="enable-background:new 0 0 832.1 785.4;" xml:space="preserve">
<style type="text/css">
	.st0{fill:#E3A0EA;}
	.st1{fill:#EA42BF;}
	.st2{fill:#992020;}
	.st3{fill:#EAB071;}
	.st4{fill:#AF7535;}
</style>
<g>
	<path class="st0" d="M269.8,478.9c-5.3-3.5-6.5-8.6-6.5-14.7c0.2-66,0.1-63.5,0.1-129.4c0-3.6,1-6.1,3.7-8.6
		c52.5-46.3,104.9-92.7,157.3-139.1c1.1-1,2.3-1.9,3.6-3c1.2,0.9,2.4,1.7,3.5,2.6c52.7,46.6,105.4,93.2,158,140
		c1.7,1.6,3.2,4.6,3.2,6.9c0.2,67.1,0.1,65.2,0.2,132.3c0,5.5-2.1,10-6.5,13c-35.3,0-70.6,0-105.9,0c-0.1-2.2-0.3-4.4-0.3-6.6
		c0-27.2,74.9-26.2,74.9-53.4c0-9.5-23.6-58-33-58c-26.1-0.1-36.9-15.1-63-15c-9.5,0-83-11.5-83-2c-0.1,26.1-29-13.1-29,13
		c0,3.3-20.3,15.7-20.4,19C291.1,376,305,478.9,269.8,478.9z"/>
	<path class="st1" d="M662.4,311.4c-8.2,8.9-16.3,17.7-24.7,26.9C567.7,276.4,498,214.6,428,152.7c-70,62-139.7,123.8-209.8,185.8
		c-8.3-9.4-16.3-18.4-24.6-27.7c11.2-10,22.2-19.7,33.2-29.5c65.3-57.8,130.7-115.6,196-173.6c4.1-3.6,6.5-3.5,10.5,0.1
		C508.5,174.6,584,241.3,659.3,308c1,0.8,2,1.5,3,2.3C662.4,310.7,662.4,311,662.4,311.4z"/>
	<path class="st2" d="M263.8,134c19.7,0,38.9,0,58.3,0c0,11.3,0.1,22.4-0.1,33.6c0,1.1-1.1,2.3-2,3.1c-18.2,16.5-36.5,33-54.8,49.4
		c-0.2,0.2-0.7,0.3-1.5,0.6C263.8,191.8,263.8,163.2,263.8,134z"/>
</g>
<g>
	<path class="st3" d="M596.7,496.5c-15.9,18.7-26.1,20.5-48.3,9.2c-16.3,19.3-27.4,21.7-48.5,10.7c-21.3,16.2-29.9,16.4-47.7,0.9
		c-19,14.6-30,14.5-47.3-0.3c-21.6,13.8-31.8,13.3-48.7-2.4c-22.2,12.2-30.5,11.3-47.2-5.3c-22.9,12.8-36.3,9-46.9-13.4
		c-27.4,10.6-41.1,3-46-25.6c-20.1-3.8-29.4-14.1-27.6-30.7c1.7-16.1,13.3-23.1,34.7-22.3c3.2-8.4,4.7-17,9.4-23.5
		c5.8-8,15.2-7.7,24.6-5.5c3.7,0.9,9.1,0.2,11.8-2c55.8-46.4,121.1-57.8,190.9-51.5c46,4.2,87.8,19.8,123.4,50.4
		c1.7,1.4,4.9,2.3,7,1.8c29.7-7,41.6,2.1,41.7,30.7c7.3,0.8,14.8,0.3,21.4,2.6c10,3.6,15,12.1,14.8,22.9
		c-0.2,11.3-6.2,18.7-16.3,23.5c-3.3,1.6-7.3,4.5-8.2,7.6C636.8,498.6,621.1,506.4,596.7,496.5z M385.3,351
		c-22.1,6.5-41.1,17-54.8,35.4c-4.6,6.1-5.8,12.9,0.4,19c6.1,5.9,13.1,4.9,19.1,0.4C368.2,392,378.9,373,385.3,351z M426.3,350.7
		c-10.6,20.4-17.4,41.5-13,64c1,4.9,7.4,10.9,12.5,12.4c8.2,2.4,13.1-4.4,14.3-11.8C443.7,392.3,437.8,371,426.3,350.7z
		 M470.3,351.2c5.7,20.8,16.1,38.6,32.2,52.6c6.5,5.7,14.4,9.4,21.9,2.2c8.1-7.7,4.2-15.9-1.7-22.8
		C508.9,367.4,491.1,357.3,470.3,351.2z"/>
	<path class="st4" d="M637.4,507.2c-4.9,16.6-8.9,31.2-13.8,45.4c-1,3.1-4.7,6.2-7.9,7.5c-118.9,47-238.5,52.8-358.8,5.5
		c-19.8-7.8-33.4-30.3-32.6-53.3C361.7,565.8,498.5,566.4,637.4,507.2z"/>
</g>
</svg>
