<?xml version="1.0" encoding="utf-8"?>
<!-- Generator: Adobe Illustrator 22.0.1, SVG Export Plug-In . SVG Version: 6.00 Build 0)  -->
<svg version="1.1" id="Capa_1" xmlns="http://www.w3.org/2000/svg" xmlns:xlink="http://www.w3.org/1999/xlink" x="0px" y="0px"
	 viewBox="0 0 612 725.3" style="enable-background:new 0 0 612 725.3;" xml:space="preserve">
<g>
	<g id="Out">
		<g>
			<path d="M192.7,181.3c9.4,0,17.9-3.8,24-10l55.3-55.3v371.3c0,18.8,15.2,34,34,34s34-15.2,34-34V116.1l55.3,55.3
				c6.1,6.2,14.6,10,24,10c18.8,0,34-15.2,34-34c0-9.4-3.8-17.9-10-24L330.1,10C323.9,3.8,315.4,0,306,0s-17.9,3.8-24,10
				L168.6,123.3c-6.2,6.1-10,14.6-10,24C158.7,166.1,173.9,181.3,192.7,181.3z M566.7,226.7H442c-18.8,0-34,15.2-34,34
				s15.2,34,34,34h102v362.7H68V294.7h102c18.8,0,34-15.2,34-34s-15.2-34-34-34H45.3C20.3,226.7,0,247,0,272v408
				c0,25,20.3,45.3,45.3,45.3h521.3c25,0,45.3-20.4,45.3-45.3V272C612,247,591.7,226.7,566.7,226.7z"/>
		</g>
	</g>
</g>
</svg>
