<?xml version="1.0" encoding="utf-8"?>
<!-- Generator: Adobe Illustrator 22.0.1, SVG Export Plug-In . SVG Version: 6.00 Build 0)  -->
<svg version="1.1" id="Ebene_1" xmlns="http://www.w3.org/2000/svg" xmlns:xlink="http://www.w3.org/1999/xlink" x="0px" y="0px"
	 viewBox="0 0 489.7 311.8" style="enable-background:new 0 0 489.7 311.8;" xml:space="preserve">
<g>
	<path d="M489.7,311.8c-34.7-27.3-69.3-54.7-104.1-81.8c-4.1-3.2-5.5-6.4-5.5-11.5c0.2-42.1,0.2-84.1,0-126.2c0-3.7,1-6.1,4-8.4
		C419.4,56,454.5,28,489.7,0C489.7,103.9,489.7,207.9,489.7,311.8z"/>
	<path d="M176.9,311.7c-42.9,0-85.7,0.3-128.6-0.2c-8.2-0.1-16.9-2-24.5-5c-15.1-6-22.1-18.5-23.5-34.3c-0.2-2.5-0.3-5.1-0.3-7.6
		c0-72.5,0-145,0-217.5c0-13.9,2.9-26.7,14.2-36C23.3,3.5,34.1,0.2,45.6,0.1c87.7-0.1,175.3-0.3,263,0.1c17,0.1,31.9,6.1,40.7,22.2
		c4,7.4,4.9,15.4,4.9,23.6c0,73.3,0,146.6,0,219.9c0,15.5-4.4,29-18.1,37.8c-8.9,5.7-19,8-29.6,8
		C263.3,311.7,220.1,311.7,176.9,311.7z"/>
</g>
</svg>
